<svg xmlns="http://www.w3.org/2000/svg" xmlns:xlink="http://www.w3.org/1999/xlink" width="1280" height="702" fill="none"><style><![CDATA[.B{opacity:.1}.C{fill:#000}.D{fill:#0083ff}.E{fill:#fff}.F{fill:#444053}.G{fill:#3f3d56}.H{fill:#efb7b9}.I{fill:#925978}.J{fill:#4c4981}.K{stroke-miterlimit:10}]]></style><g clip-path="url(#C)"><g clip-path="url(#D)"><path d="M1084.9 401.863c-3.65 1.41-7.76 3.328-8.7 7.11a8.72 8.72 0 0 0 .23 4.391c.53 1.835 1.43 3.546 2.63 5.035a14.42 14.42 0 0 0 4.37 3.641c4.18 2.244 9.38 2.367 13.2 5.16a11.36 11.36 0 0 1 4.44 7.122c.2 1.195.22 2.437.66 3.57 1.18 3.034 4.87 4.215 8.13 4.39 1.57.092 3.28.097 4.48 1.11a6.66 6.66 0 0 1 1.21 1.546c2.53 4.035 5.15 8.342 5.18 13.115 0 3.74-1.58 7.298-3.44 10.538-2.4 4.23-5.38 8.383-5.94 13.217-.65 5.708 2.2 11.214 2.57 16.936.18 3.047-.34 6.095-1.5 8.915-1.18 2.82-2.98 5.336-5.27 7.362" stroke="#444053" class="K"/><g class="D"><path d="M1070.14 351.92c2.8 20.338 2.32 45.915-15.98 48.423-18.3 2.507-47.5-19.01-50.32-39.343s9.77-38.855 28.08-41.362c18.3-2.507 35.42 11.948 38.22 32.282z"/><path d="M1064.58 407.457s-3 1.352-3.45-1.555c-.04-.258-.06-.52-.05-.78a7.91 7.91 0 0 0-.5-2.635c-.1-.3-.24-.592-.38-.878-.63-1.296-1.5-2.474-2.52-3.482l7.04-5.366s-1.24 4.33-.06 5.37a.94.94 0 0 0 .63.219 1.75 1.75 0 0 0 .62-.118l.67-.202c2.38-.606 2.2.908 2.2.908 1.88 3.285-4.2 8.52-4.2 8.52z"/></g><path d="M1065.3 398.324l-4.7 4.15c-.1-.3-.24-.592-.38-.878l4.45-3.478a.93.93 0 0 0 .63.207h0z" class="F"/><use xlink:href="#E" class="D"/><use xlink:href="#E" class="B C"/><path d="M1018.9 330.58s-8.87 4.474-7.55 11.47c0 0 1.52-1.44 3.08-1.783.78-.13 1.52-.443 2.16-.913 0 0-.76-3.864 2.3-8.773z" class="B E"/><use xlink:href="#F" class="D"/><use xlink:href="#F" class="B C"/><path d="M1084.3 447.695a3.82 3.82 0 0 1-.77-.154 7.78 7.78 0 0 0-2.69-.224c-.33.02-.65.06-.98.123a11.93 11.93 0 0 0-2.77.852c-.43.185-.85.396-1.25.632l-2.3-5.734-.98-2.45c.7.43 1.46.803 2.24 1.12 1.08.44 2.28.778 2.92.37a1.01 1.01 0 0 0 .38-.544 1.95 1.95 0 0 0 .05-.637l-.02-.698c.06-2.44 1.48-1.875 1.48-1.875 1.63-.4 3.22.8 4.47 2.244l.53.65a22.76 22.76 0 0 1 2.13 3.433s.5 3.25-2.43 2.894z" class="D"/><path d="M1080.86 447.317c-.33.02-.66.06-.98.123-.44-1.242-1.23-3.073-1.85-4.483l-.12-.298-.18-.44c.18-.13.32-.324.37-.545l.42.852.16.338 2.18 4.452z" class="F"/><use xlink:href="#G" class="D"/><use xlink:href="#G" class="B C"/><path d="M1000.25 468.104s1.94 9.73 9.05 10.336c0 0-.98-1.848-.88-3.42a5.01 5.01 0 0 0-.3-2.332s-3.95-.312-7.87-4.584z" class="B E"/><use xlink:href="#H" class="D"/><use xlink:href="#H" class="B C"/><path d="M1076.96 406.36c-.14 3.794-8.06 5.098-8.06 5.098s-3.26-.413-2.12-3.122a4.66 4.66 0 0 1 .36-.694c.46-.78.8-1.633.96-2.525a7.97 7.97 0 0 0 .15-.952c.1-.968.07-1.944-.06-2.907a10.66 10.66 0 0 0-.27-1.374l8.8-.923c-.6.58-1.2 1.2-1.72 1.858-.73.922-1.35 1.98-1.14 2.696a.89.89 0 0 0 .17.301c.08.088.17.16.27.213a1.61 1.61 0 0 0 .6.228c.22.044.45.1.66.17 2.33.72 1.4 1.932 1.4 1.932z" class="D"/><path d="M1074.28 404.028l-6.16 1.09.15-.953 5.6-.65a.88.88 0 0 0 .4.514h0z" class="F"/><use xlink:href="#I" class="D"/><use xlink:href="#I" class="B C"/><path d="M1070.17 322.098s-9.9-.808-12.44 5.85c0 0 2.05-.44 3.54.07a5 5 0 0 0 2.33.351s1.38-3.7 6.57-6.27z" class="B E"/><g class="B C"><path d="M968.94 448.354c-.08 1.567.907 3.4.907 3.4-7.103-.6-9.05-10.327-9.05-10.327 3.917 4.268 7.843 4.584 7.843 4.584a4.97 4.97 0 0 1 .299 2.332h0zm67.46-26.1l-3.3-8.184a17.08 17.08 0 0 0 2.24 1.119 15.62 15.62 0 0 1 2.3 6.433 11.43 11.43 0 0 0-1.25.632h0z" class="B"/><path d="M1037.73 425.056l-.12 1.203c-.36 2.388-1.06 4.712-2.08 6.902l-.88 1.858c-7.1 13.6-25.04 26.946-40.87 28.98a30.28 30.28 0 0 1-.617-11.354c2.016-14.77 14.526-25.82 30.046-28.028a41.08 41.08 0 0 1 11.37-.039l3.15.48zm7.12-4.03c-.26-.026-.52-.077-.77-.154a7.72 7.72 0 0 0-2.68-.224 7.25 7.25 0 0 0-.98.123c-1.42.263-2.78.765-4.03 1.484l-3.3-8.184a17.08 17.08 0 0 0 2.24 1.119c1.08.44 2.28.777 2.92.37.18-.132.32-.324.38-.544.05-.208.07-.424.05-.637v-.694c.06-2.44 1.48-1.88 1.48-1.88 3.7-.905 7.12 6.327 7.12 6.327s.5 3.245-2.44 2.894z" class="B"/><path d="M1041.4 420.647a7.25 7.25 0 0 0-.98.123l-2.16-5.212c.18-.132.32-.324.38-.544l2.76 5.633zm3.45.378a10.03 10.03 0 0 0-1.05-3.671c-.88-1.54-3.33-3.478-5.13-3.67.06-2.44 1.48-1.88 1.48-1.88 3.7-.905 7.12 6.327 7.12 6.327s.5 3.245-2.42 2.894zm-75.002 30.74c-7.103-.6-9.05-10.327-9.05-10.327 3.917 4.268 7.843 4.584 7.843 4.584a4.97 4.97 0 0 1 .299 2.332c-.08 1.567.907 3.4.907 3.4z" class="B"/></g><g class="D"><path d="M1037.6 424.204l-.12.812c-.4 2.103-1.06 4.15-1.96 6.095l-.26.562c-.2.44-.4.878-.64 1.29-7.17 13.734-25.37 27.184-41.3 29.05a28.39 28.39 0 0 1-7.217 0c-20.386-2.762-34.896-19.808-32.418-38.065 2.016-14.77 14.523-25.818 30.046-28.027.48-.07.963-.132 1.456-.184 3.298-.35 6.626-.302 9.91.144 6.82.914 14.1 2.35 20.68 4.536 1.4.463 2.74.957 4.06 1.484.35.136.7.3 1.04.44.64.268 1.27.558 1.88.843.5.224.97.462 1.44.7 4.8 2.432 8.73 5.475 11.1 9.273 1.23 1.947 2.02 4.143 2.3 6.428a17.43 17.43 0 0 1-.01 4.62z"/><path d="M1044.85 418.974c-.26-.026-.52-.077-.77-.154-.88-.23-1.8-.308-2.68-.228-.33.022-.66.065-.98.127a12.09 12.09 0 0 0-2.78.848c-.43.188-.85.4-1.25.637l-3.3-8.185c.72.427 1.47.8 2.24 1.12 1.08.44 2.28.777 2.92.368a1.01 1.01 0 0 0 .38-.544 1.95 1.95 0 0 0 .05-.637v-.698c.06-2.44 1.48-1.875 1.48-1.875 3.7-.904 7.12 6.328 7.12 6.328s.5 3.24-2.44 2.893z"/></g><path d="M1041.4 418.592c-.33.022-.66.065-.98.127l-2.16-5.212a1.01 1.01 0 0 0 .38-.544l2.76 5.63z" class="F"/><use xlink:href="#J" class="D"/><use xlink:href="#J" class="B C"/><path d="M960.795 439.383s1.945 9.726 9.053 10.336c0 0-.986-1.848-.902-3.42a5 5 0 0 0-.3-2.332s-3.93-.307-7.85-4.584z" class="B E"/><g class="B C"><path d="M1020.9 402.324l3.33 1.54c-1.36.346-2.73.6-4.1.76-11.1 1.317-25.328-2.147-36.348-8.712a41.03 41.03 0 0 1 11.368-.039c6.82.913 14.1 2.35 20.68 4.535 1.74.584 3.45 1.208 5.08 1.915zm16-8.316c-.9 2.113-2.28 4-4 5.528a11.04 11.04 0 0 0-1.23-.677l4.9-7.346c.05.84.16 1.672.33 2.495h0z" class="B"/><path d="M1041.2 405.494s-2.4 2.248-3.77-.356a4.85 4.85 0 0 1-.3-.728c-.3-.85-.75-1.642-1.32-2.34l-.65-.73c-.68-.692-1.45-1.298-2.28-1.804-.4-.254-.8-.48-1.23-.677l4.92-7.346c.05.84.16 1.673.34 2.495.23 1.15.64 2.318 1.34 2.634.2.075.45.075.66 0a1.78 1.78 0 0 0 .56-.312l.56-.408c2.06-1.317 2.4.154 2.4.154 2.83 2.516-1.22 9.418-1.22 9.418z" class="B"/><path d="M1038.9 396.625l-3.1 5.444-.65-.73 3.1-4.715a.96.96 0 0 0 .66 0zm2.3 8.87s-2.4 2.248-3.77-.356a9.97 9.97 0 0 0 2.45-2.937c.78-1.598 1-4.707.15-6.297 2.05-1.317 2.38.154 2.38.154 2.84 2.534-1.2 9.436-1.2 9.436zm-67.444-49.03a5.05 5.05 0 0 1-1.76 1.568c-1.347.82-2.324 2.67-2.324 2.67-3.52-6.196 3.455-13.287 3.455-13.287-1.325 5.642.63 9.05.63 9.05z" class="B"/></g><use xlink:href="#K" class="D"/><use xlink:href="#K" class="B C"/><path d="M1041.2 404.47s-2.4 2.244-3.77-.36a4.86 4.86 0 0 1-.3-.729c-.3-.85-.75-1.64-1.32-2.34l-.65-.725a11.9 11.9 0 0 0-2.28-1.809 10.14 10.14 0 0 0-1.23-.676l4.92-7.342c.05.837.16 1.67.34 2.5.23 1.15.64 2.318 1.34 2.635a.97.97 0 0 0 .66 0c.2-.068.4-.172.56-.308l.56-.413c2.06-1.317 2.4.154 2.4.154 2.83 2.507-1.22 9.423-1.22 9.423z" class="D"/><path d="M1038.9 395.597l-3.1 5.445c-.2-.253-.42-.495-.65-.725l3.1-4.72c.2.08.45.08.66 0z" class="F"/><use xlink:href="#L" class="D"/><use xlink:href="#L" class="B C"/><path d="M973.122 346.388s-6.954 7.092-3.446 13.29c0 0 .973-1.857 2.324-2.674a5.01 5.01 0 0 0 1.76-1.563s-1.963-3.41-.638-9.054z" class="B E"/><g class="D"><path d="M1168.23 405.608c-2.3 18.293-20.7 31.026-41.13 28.484-9.9-1.238-20.83-3.54-29.17-7.68-4.84-2.4-8.8-5.41-11.2-9.194a15.7 15.7 0 0 1-2.39-6.398c-.2-1.54-.2-3.098 0-4.636.55-4.422 2.64-9.098 5.77-13.612 9.8-14.135 29.85-26.65 45.33-24.703 20.4 2.555 35.1 19.45 32.8 37.74z"/><path d="M1089 418.33c-.73-.425-1.48-.796-2.26-1.11-1.1-.44-2.3-.755-2.93-.338-.1.063-.18.145-.24.24-.07.096-.1.203-.14.316-.05.204-.07.415-.05.624l.03.698c-.03 2.45-1.46 1.897-1.46 1.897-3.68.944-7.2-6.266-7.2-6.266s-.53-3.232 2.4-2.916a5.23 5.23 0 0 1 .77.145 7.69 7.69 0 0 0 2.7.207c.32-.026.65-.07.97-.136.94-.186 1.87-.48 2.75-.88a10.92 10.92 0 0 0 1.26-.658l3.4 8.176z"/></g><path d="M1083.8 416.875a.89.89 0 0 0-.24.242c-.07.095-.1.203-.13.316l-2.8-5.612c.32-.025.65-.07.97-.136l2.2 5.2z" class="F"/><use xlink:href="#M" class="D"/><use xlink:href="#M" class="B C"/><path d="M1161 390.24s-2.04-9.708-9.15-10.248c0 0 1 1.84.93 3.416-.08.8.03 1.588.33 2.327 0 0 3.93.272 7.9 4.505z" class="B E"/><g class="C"><path d="M1097.93 426.412c-4.84-2.4-8.8-5.4-11.2-9.194-1.1-.44-2.3-.755-2.93-.338-.1.063-.18.145-.24.24-.07.096-.1.203-.14.316-.05.204-.07.415-.05.624 0 .255.03.492.03.698-.03 2.45-1.46 1.897-1.46 1.897-3.68.944-7.2-6.266-7.2-6.266s-.53-3.232 2.4-2.915a5.1 5.1 0 0 1 .77.144 7.69 7.69 0 0 0 2.7.207 8.08 8.08 0 0 0 .97-.136c.94-.186 1.87-.48 2.75-.88-.2-1.54-.2-3.097 0-4.636.55-4.422 2.64-9.098 5.77-13.612 5.24 11.27 9.4 24.053 7.82 33.85zm-13.86 14.306a23.83 23.83 0 0 1-2.86 1.111 26.82 26.82 0 0 1-2.71.707l-.6.123-2.44.36-1.92.17c-12.2.8-27.48-3.74-38.24-11.517a40.52 40.52 0 0 1-7.95-7.417 27.45 27.45 0 0 1-3.13-4.83c-2.5-4.924-3.94-10.302-4.28-15.807-.03-.584-.06-1.15-.06-1.725-.17-12.734 5.98-24.6 17.04-30.38 2.08 7.97 2.57 15.6 0 21.467.24 1.15.65 2.318 1.35 2.635.2.077.44.077.65 0a1.74 1.74 0 0 0 .56-.308c.2-.153.4-.298.57-.413 2.05-1.317 2.38.154 2.38.154 2.84 2.534-1.2 9.44-1.2 9.44s-2.4 2.243-3.77-.36a4.87 4.87 0 0 1-.3-.73c-.3-.85-.75-1.64-1.32-2.34a8.41 8.41 0 0 0-.64-.724c-.68-.694-1.45-1.302-2.28-1.8a17.44 17.44 0 0 1-3.85 2.586 24.58 24.58 0 0 1-6.23 2.072c.5.224.96.462 1.44.7 4.8 2.432 8.73 5.475 11.1 9.273 1.08.44 2.28.777 2.92.37a.92.92 0 0 0 .38-.544c.06-.208.07-.424.05-.637v-.698c.06-2.442 1.48-1.875 1.48-1.875 3.7-.905 7.13 6.327 7.13 6.327s.5 3.24-2.43 2.894c-.26-.026-.52-.077-.77-.154a7.8 7.8 0 0 0-2.68-.228 7.77 7.77 0 0 0-.98.127 12.09 12.09 0 0 0-2.78.847 16.75 16.75 0 0 1-.03 4.637l-.12.813c.08 0 .16.03.24.04a110.32 110.32 0 0 1 17.53 4.075c1.76.584 3.47 1.207 5.1 1.92a49.97 49.97 0 0 1 3.32 1.536c4.8 2.433 8.73 5.476 11.1 9.274 1.08.44 2.28.777 2.92.37a.96.96 0 0 0 .38-.545c.06-.206.07-.423.05-.636 0-.255-.02-.483-.02-.698.06-2.442 1.48-1.875 1.48-1.875 1.6-.417 3.2.777 4.44 2.226z" class="B"/><g class="B"><path d="M1087.1 386.438l1.93 3.95c-4.2 5.1-8.9 8.945-14.03 10.4-.72.922-1.35 1.98-1.14 2.696.04.1.1.213.17.3a.88.88 0 0 0 .27.213 1.59 1.59 0 0 0 .6.228 5.24 5.24 0 0 1 .66.172c2.35.72 1.4 1.932 1.4 1.932-.13 3.793-8.06 5.097-8.06 5.097s-3.26-.412-2.1-3.122a5.69 5.69 0 0 1 .35-.693c.47-.78.8-1.634.97-2.525.06-.32.12-.637.15-.953a12.85 12.85 0 0 0-.06-2.907c-1.54-.235-3.04-.678-4.46-1.317-10-4.37-18.84-17.85-22.72-32.053 16.4-7.794 36.95.404 46.07 18.57zm8.4 42.855a15.68 15.68 0 0 1-4.01 5.541c-.4-.253-.8-.48-1.23-.68l4.92-7.342a18.83 18.83 0 0 0 .32 2.481h0z" class="B"/><path d="M1099.78 440.793s-2.4 2.243-3.76-.36a4.82 4.82 0 0 1-.31-.729 7.56 7.56 0 0 0-1.32-2.336c-.2-.257-.4-.5-.65-.73-.68-.69-1.44-1.297-2.27-1.805-.4-.253-.8-.48-1.23-.68l4.9-7.342a17.31 17.31 0 0 0 .33 2.481c.25 1.15.66 2.327 1.36 2.634a.89.89 0 0 0 .65 0 1.59 1.59 0 0 0 .56-.307c.18-.146.37-.282.57-.408 2.05-1.344 2.38.153 2.38.153 2.85 2.525-1.22 9.428-1.22 9.428z" class="B"/><path d="M1097.5 431.92l-3.1 5.44a10.24 10.24 0 0 0-.64-.72l3.08-4.725c.2.088.46.1.67.005h0zm2.28 8.873s-2.4 2.243-3.76-.36c1-.805 1.83-1.797 2.44-2.92.78-1.603 1-4.707.15-6.3 2.06-1.318 2.4.153 2.4.153 2.85 2.52-1.22 9.428-1.22 9.428zm-67.42-49.033a5.04 5.04 0 0 1-1.77 1.559c-1.34.82-2.32 2.68-2.32 2.68-3.52-6.196 3.46-13.283 3.46-13.283-1.33 5.642.63 9.045.63 9.045z" class="B"/></g></g><g class="D"><path d="M1086.08 388.488c9.22 18.35 17.04 42.72.52 50.978-16.5 8.26-51.1-2.713-60.33-21.076s-3.3-39.922 13.2-48.18c16.5-8.26 37.38-.07 46.6 18.28z"/><path d="M1098.77 442.847s-2.4 2.24-3.77-.364l-.3-.724c-.3-.853-.75-1.646-1.32-2.345-.2-.254-.42-.496-.65-.725a12.58 12.58 0 0 0-3.52-2.485l4.92-7.337s.23 4.492 1.68 5.098a.92.92 0 0 0 .67 0 1.78 1.78 0 0 0 .55-.312l.57-.408c2.05-1.34 2.4.15 2.4.15 2.84 2.542-1.22 9.453-1.22 9.453z"/></g><path d="M1096.48 433.973l-3.1 5.44-.65-.725 3.08-4.724a.9.9 0 0 0 .67.008z" class="F"/><use xlink:href="#N" class="D"/><use xlink:href="#N" class="B C"/><path d="M1030.7 384.76s-6.96 7.092-3.45 13.292c0 0 .98-1.853 2.33-2.675.7-.374 1.3-.9 1.76-1.563 0 0-1.96-3.41-.64-9.054z" class="B E"/><g stroke="#444053" class="K"><path d="M1094.57 437.447c-2.83 1.99-3 6.757-.35 8.966 3.3 2.718 8.2 1.014 12.45 1.47s7.98 3.232 10.67 6.555c2.53 3.16 4.34 6.833 5.3 10.762s1.05 8.02.27 11.988c-.84 4.044-2.57 7.864-3.36 11.917-.94 4.856-.48 9.87.1 14.784.44 3.662 1 7.416 2.78 10.643 2.85 5.124 8.4 8.145 13.93 10.1s11.38 3.162 16.54 5.968c3.5 1.942 6.6 4.574 9.05 7.738 2.47 3.164 4.26 6.793 5.28 10.668a2.98 2.98 0 0 1 .05 1.844c-.25.58-1.02.966-1.53.597"/><path d="M1079.78 446.04c-.27 1.26.65 2.573 1.86 3.007a4.33 4.33 0 0 0 1.91.132 4.32 4.32 0 0 0 1.78-.702c1.32-.84 2.5-2.25 4.08-2.196 1.14.03 2.1.856 2.82 1.757s1.3 1.918 2.18 2.634c.77.58 1.66.985 2.6 1.186a7.46 7.46 0 0 0 3.42.162c2.43-.53 4.2-2.692 6.6-3.38 3.16-.91 6.43.953 8.96 3.047 3.03 2.508 5.76 5.572 7.02 9.296.83 2.463 1 5.09 1.32 7.666.32 2.578.9 5.217 2.42 7.33 1.5 2.112 4.18 3.592 6.72 3.02"/></g><path d="M1277.44 450.035l-15.1-8.6c-1.17-.795 0-1.906 0-1.906-2.23-1.43-6.86 1.51-6.86 1.51s1.68.417 3.28.922c-5.8-1.506-15.46-4.33-20.4-7.504-3.82-2.464-7.17-1.757-9.5-.527l-.05-.145c-.6-1.83-.5-3.833-1.2-5.625-.88-2.195-3-3.745-5.34-4.206-1.32-.264-1.55-.128-2.33-1.13-.94-1.194-1.67-1.63-3.22-1.962-1.76-.374-3.52-.747-5.34-.624-1.8.123-3.62.817-4.7 2.195-.6.786-.93 1.735-1.52 2.53-2.8 3.807-9.53 2.077-13.12 5.22-2.2 1.94-2.55 5.12-3.05 7.974-.5 2.854-1.65 6.073-4.47 7.026-1.34.44-2.8.285-4.22.382-1.42.096-3 .588-3.6 1.826-.23.497-.33 1.044-.3 1.6v.162a18.01 18.01 0 0 0 .34 2.424v-.092c.16 1.067.16 2.055-.6 2.775-1.56 1.475-4.96.127-5.94 2.02a1.77 1.77 0 0 0-.17.878 3.18 3.18 0 0 0 .26 1.179c.17.372.4.705.7.98.75.747 1.7 1.317 2.3 2.156a3.4 3.4 0 0 1 .54 1.168l.03-.118c.16.662.13 1.354-.08 2.002-5.15-.207-12.76-.68-14.3-1.713-2.38-1.59-13.52-4.276-13.52-4.276l-.13-.08-.37-.21-.34-.19-.07-.035c-.13-.07-.27-.145-.44-.22h-.03l-.44-.22-.08-.035-.5-.224-.1-.04c-.16-.066-.33-.132-.5-.193l-.05-.022c-.2-.066-.37-.123-.55-.18l-.1-.026c-.35-.104-.72-.173-1.1-.207h-.56l-.13.022a.87.87 0 0 0-.14.027c-.1.022-.18.05-.26.087a.97.97 0 0 0-.41.479l-.8-.303-13.8-5.317s-1.66-.878-2.4-1.432c-2.36-1.28-4.9-2.224-7.52-2.8l-.1-.066v.044c-3.04-.545-5.62 0-4.7 3.816 1.9 8.044 12.42 7.09 12.42 7.09l15.86 6.75c-.1 4.443.35 9.128 1.47 9.747a5.39 5.39 0 0 0 .56.277l.12.057c.18.08.36.15.53.207h.04a8.96 8.96 0 0 0 .51.153h.08c.17.05.35.084.5.114a7.77 7.77 0 0 0 1.69.132h.2l-.1-5.322c.17.064.34.14.5.23h0a10.49 10.49 0 0 1 1.55 1.045c1.32 1.032 10.08 2.063 10.08 2.063s8.36 3.096 8.85 3.737 24.42 1.348 24.42 1.348-3.28 7.307 5.82 14.617c0 0 1.55 9.53.57 12.15-.62 1.647-.75 4.672-.77 6.692-3 1.054-10.12 3.736-11.93 5.976-2.34 2.858-4.18 2.858-4.18 2.858s-2.34 4.39-5.16 5.48c-2.83 1.09-11.92 5.96-12.8 7.267-.86 1.308-8.48 5.708-8.48 5.708s-7.87 6.196-9.34 8.457-11.8 6.556-11.8 6.556-2.83 3.95-1.97 8.1-6.96 1.905-.16 8.935c1.6 1.65 4.48 3.408 8.08 5.296-.25.153-.5.3-.76.412a6.78 6.78 0 0 1-1.26.488c-4.05 1.07-15.6 19.535-15.6 19.535s-7.07 8.86-12.54 12.088c-.18.1-.37.21-.55.307-.44-1.036-2.13-2.06-3.86-2.85-1.95-.876-4.03-1.44-6.16-1.673-1.4-.167-3.17-.567-4.3-1.515a11.21 11.21 0 0 0-3.45-1.98c-1.7-.536-3.1-.093-2.42 3.135a26.37 26.37 0 0 0 3.69 9.014s7.58 6.63 8.28 8.975 3.85 4.966 4.34 4.646c.16-.106 1-.606 2.03-1.317 2.13-1.4 5.17-3.627 5.35-4.896 0-.03-.36.035-.88.07l.25-.465c1-1.757 3.5-5.74 6.4-7.11l11.68-11.17s12.42-6.432 14.53-11.197c.88-1.99 3.96-4.89 7.28-7.596l.74-.593c9.9 4.866 20.35 10.54 25.04 17.243 6.75 9.66 21.98 13.22 29.1 14.385.05.553.08 1.085.1 1.58.12 2.07.01 4.15-.33 6.195-.37 2.143-.28 18.824-.28 18.824s.77 8.576-1.45 11.315c-1.13 1.4-2 4.77-2.6 7.698-.03.175-.06.35-.1.527-1.02.465-1.85 1.48-2.3 3.297 0 0-1.9 1.23-1.44 6.112.1 1.18.15 2.196.2 3.074.17 2.77.48 4.088 3.5 4.057 3.96-.04 12.25-4.088 12.25-4.088.05-.83.02-1.66-.1-2.485a9.81 9.81 0 0 0-1.59-4.461l.03-.084.1-.215c.08-.193.15-.408.22-.628l.03-.057a5.51 5.51 0 0 0 .28-1.559v-5.58s.25-8.102 2.2-12.39c1.58-3.456 5.8-19.597 6.1-27.795.04-.768.02-1.538-.04-2.305.24-.072.45-.22.6-.42a1.16 1.16 0 0 0 .23-.695c-.12-3.1-2.58-1.67-1.35-7.746s2.1-13.58 4.3-17.155c1.56-2.636 2.9-5.383 4.06-8.22 0 0 4.67-15.728 6.64-19.54 1.96-3.812 9.46-28.594-2.46-40.15l-.65-2.516s0-.04.04-.083c.07-.154.26-.584.5-1.18.22-.492.44-1.102.7-1.757a30.17 30.17 0 0 0 .41-1.172c.2-.593.38-1.2.5-1.756l.07-.3c3.8.878 6.1-1.836 7.04-3.263.52-.294.73-.575.47-.82-1.48-1.43-.16-4.527-.16-4.527l.07-13.502s1.72-.32 2.14-5.084a12.33 12.33 0 0 1 3.42-7.566c3.7-4.044 13.92-8.435 13.92-8.435 7.37-2.406 18.36-12.927 18.36-12.927 5.9-4.847-.74-7.043-.74-7.043zm-16.14 5.45c-2.3.475-7.45 3.03-7.45 3.03s-3.1.782-5.9 1.83c-2.8 1.05-6.4-.544-6.4-.544-1.88-2.525-8.27 1.097-9.75 1.97-1.12.663-2.05.44-3.12-.487-.38-.34-.73-.71-1.06-1.102a4.05 4.05 0 0 0-1.09-.905c.48-.842 1.1-1.607 1.8-2.27 1.55-1.5 3.4-2.727 4.96-4.228 1.56-1.502 2.9-3.394 3.04-5.524v-.277c.04-1.332-.3-2.65-.96-3.807 1.3.28 2.6.48 3.93.593 3.75.23 8.36 2.103 11.12 3.4l.56.268-.3.105.1.14-.1.036.03.035.22.285.03.035c.1.136.24.303.4.496l.05.058.55.64.06.06c.2.233.44.474.66.716l.06.06a17.32 17.32 0 0 0 .66.641 11.69 11.69 0 0 0 .95.795l.03.022c.26.2.53.363.8.518l.08.044c.13.066.26.124.4.176 2.2.878 3.35-1.2 3.35-1.2.32.087.63.208.92.36 2.24 1.12 3.42 3.61 1.4 4.017z" fill="url(#A)"/><path d="M1260.68 443.467v2.445l-10.3 2.85-2.4-1.23c-2.7-1.296-7.18-3.18-10.83-3.408-5.63-.364-24.13-5.92-18.57-7.17 5.57-1.25 5.14 0 5.14 0s5.4-6.88 12.53-2.16c5.42 3.59 16.7 6.73 21.82 8.035l2.6.637z" class="H"/><path d="M1215.16 421.16c-1.7-.373-3.45-.75-5.2-.628-1.75.123-3.52.82-4.58 2.222-.58.786-.9 1.756-1.48 2.533-2.74 3.82-9.3 2.086-12.78 5.24-2.16 1.945-2.5 5.133-2.97 7.995s-1.6 6.09-4.36 7.048c-1.32.44-2.74.285-4.12.377-1.37.093-2.9.593-3.52 1.83-1.04 2.143 1.2 5.226-.52 6.885-1.53 1.476-4.84.123-5.8 2.025-.46.93.06 2.068.78 2.82s1.65 1.317 2.25 2.16a3.72 3.72 0 0 1 .66 1.846 3.66 3.66 0 0 1-.38 1.923c-.3.595-.75 1.1-1.3 1.458a3.71 3.71 0 0 1-1.88.582c-1.2.04-2.58-.48-3.55.255a2.57 2.57 0 0 0-.64.951 2.46 2.46 0 0 0-.16 1.139c.1 1.334.7 2.58 1.7 3.48s2.3 1.384 3.63 1.35c2.05-.132 3.8-1.484 5.48-2.635 1.7-1.15 3.74-2.23 5.72-1.708a9.23 9.23 0 0 1 2.57 1.348c2.4 1.526 5.03 2.653 7.8 3.337 2.43.602 5.2.795 7.26-.62 2.34-1.598 3.2-4.87 5.72-6.147 2.64-1.34 5.77.075 8.5 1.25s6.28 1.972 8.33-.167c2.2-2.305.93-6.182 2.07-9.16.47-1.117 1.17-2.122 2.06-2.95 1.5-1.52 3.3-2.74 4.84-4.24 1.53-1.502 2.83-3.403 2.96-5.542.17-2.573-1.36-4.935-3-6.924-1.64-1.99-3.52-3.912-4.3-6.376-.57-1.835-.48-3.842-1.17-5.638-.45-1.077-1.16-2.026-2.07-2.762a7.09 7.09 0 0 0-3.13-1.457c-1.32-.264-1.52-.127-2.28-1.137-.36-.527-.82-.974-1.35-1.313-.54-.338-1.14-.56-1.77-.65z" class="I"/><g class="B C"><path d="M1175.98 448.578c-.24 1.053.07 2.26.24 3.394.26-.988-.07-2.2-.24-3.394zm-3.08 13.3c.25.355.42.752.53 1.172.13-.52.16-1.064.07-1.594a3.96 3.96 0 0 0-.6-1.48c-.6-.85-1.52-1.4-2.25-2.16-.3-.298-.53-.642-.7-1.02a.66.66 0 0 0-.08.115c-.47.93.06 2.068.78 2.818s1.65 1.296 2.25 2.148zm58.4-10.622c-1.53 1.506-3.32 2.722-4.84 4.242a8.59 8.59 0 0 0-2.06 2.955c-1.14 2.977.14 6.85-2.07 9.155-2.05 2.138-5.6 1.343-8.33.167s-5.84-2.6-8.5-1.252c-2.52 1.282-3.4 4.558-5.72 6.147-2.06 1.414-4.84 1.22-7.25.62a26.18 26.18 0 0 1-7.79-3.338 9.37 9.37 0 0 0-2.57-1.348c-2-.522-4.04.55-5.73 1.713s-3.42 2.5-5.48 2.634c-2.37.154-4.66-1.672-5.2-3.95a3.47 3.47 0 0 0-.12 1.014c.1 1.333.7 2.58 1.7 3.48a5.2 5.2 0 0 0 3.63 1.35c2.06-.132 3.8-1.484 5.48-2.635 1.7-1.15 3.75-2.23 5.73-1.708.92.312 1.8.765 2.57 1.344a26 26 0 0 0 7.79 3.341c2.43.598 5.2.8 7.25-.62 2.34-1.598 3.22-4.87 5.72-6.147 2.65-1.344 5.77.07 8.5 1.247s6.28 1.972 8.33-.167c2.2-2.3.93-6.178 2.07-9.155a8.61 8.61 0 0 1 2.06-2.955c1.5-1.515 3.3-2.735 4.84-4.237s2.83-3.407 2.96-5.54a6.08 6.08 0 0 0-.06-1.348c-.3 1.923-1.5 3.622-2.9 4.992z" class="B"/></g><path d="M1234.3 509.348l3.92.316s-2.95 6.643-9.25 3.363c-6.3-3.28 5.33-3.68 5.33-3.68z" class="J"/><path d="M1234.3 509.348l3.92.316s-2.95 6.643-9.25 3.363c-6.3-3.28 5.33-3.68 5.33-3.68z" class="B C"/><g class="H"><path d="M1159.2 577.42s-4.92 3.407-9.43 7.196c-3.23 2.714-6.25 5.625-7.1 7.62-2.06 4.78-14.15 11.253-14.15 11.253l-11.38 11.237c-2.85 1.374-5.28 5.357-6.25 7.13-.3.54-.44.878-.44.878h-5.15l-3.1-3.1s-1.68-7.526 3.6-8.123c1.03-.176 2-.565 2.87-1.142 5.34-3.236 12.22-12.123 12.22-12.123s11.26-18.52 15.2-19.597a6.43 6.43 0 0 0 1.23-.487c3.9-1.967 9.08-7.996 9.08-7.996l12.8 7.263zm58.5 41.67c-.28 8.22-4.4 24.4-5.93 27.874-1.92 4.303-2.16 12.43-2.16 12.43V665a6.08 6.08 0 0 1-.52 2.257 10.83 10.83 0 0 1-.56 1.208l-10.56-1.792s.28-2.402.82-5.185c.57-2.942 1.43-6.3 2.54-7.72 2.15-2.748 1.4-11.355 1.4-11.355s-.1-16.73.27-18.88c.34-2.053.44-4.137.32-6.213-.05-1.116-.15-2.385-.32-3.825-.6-5.02 0-12.426 0-12.426l12.1.597 2.03 13.146c.5.764.65 2.28.57 4.268z"/></g><path d="M1110.9 621.834l-.44.878h-5.15l-3.1-3.11s-1.68-7.526 3.6-8.123c1.03-.176 2-.565 2.87-1.142.73 2.196-1.6 4.448-1.6 4.448s-.96.913-.24 4.46c.47 2.407 2.7 2.644 4.07 2.587z" class="B C"/><path d="M1111.5 622.23c-.17 1.273-3.14 3.512-5.2 4.91l-1.97 1.317c-.48.32-3.56-2.3-4.24-4.66s-8.07-9-8.07-9c-1.73-2.77-2.95-5.835-3.6-9.04-.67-3.236.7-3.684 2.36-3.148 1.23.457 2.36 1.13 3.35 1.99 1.1.953 2.84 1.352 4.2 1.52a19.61 19.61 0 0 1 5.99 1.677c1.7.795 3.35 1.818 3.76 2.86.88 2.274-1.53 4.624-1.53 4.624s-.96.913-.24 4.46 5.2 2.375 5.2 2.494z" class="F"/><g class="C"><path d="M1106.3 627.138l-1.97 1.317c-.48.32-3.56-2.3-4.24-4.66s-8.07-9-8.07-9c-1.73-2.77-2.95-5.835-3.6-9.04-.67-3.236.7-3.684 2.36-3.148.6 2.555 1.92 7.508 3.6 9.958 2 2.903 9.8 12.1 11.92 14.574zm102.66 39.948l.12.18a10.83 10.83 0 0 1-.56 1.208l-10.56-1.792.82-5.185c3.87-1.65 10.53 4.6 10.53 4.6l-.35.988z" class="B"/></g><path d="M1210.6 674.53s-8.07 4.06-11.93 4.1c-2.94.03-3.24-1.29-3.4-4.066l-.2-3.104c-.44-4.896 1.4-6.148 1.4-6.148 2.12-8.843 12.87 1.247 12.87 1.247l-.37.988c.87 1.35 1.4 2.882 1.55 4.475a13.13 13.13 0 0 1 .09 2.507h0z" class="F"/><path d="M1210.6 674.53s-8.07 4.06-11.93 4.1c-2.94.03-3.24-1.29-3.4-4.066a9.11 9.11 0 0 0 3.47 1.287c1.23.186 2.48.116 3.7-.207 2.87-.756 5.6-1.974 8.1-3.605a12.96 12.96 0 0 1 .09 2.49z" class="B C"/><path d="M1225.77 464.416l-1.68 17.94-6 1.567-6.2 1.62-7.2-1.6s-2.76-6.257-1.82-11.35c.27-1.807 1.2-3.445 2.64-4.59.45-.345.85-.746 1.2-1.194a5.63 5.63 0 0 0 .9-1.721c.24-.766.34-1.567.3-2.367-.16-3.952-3.18-7.86-3.18-7.86s13.9-6.85 13.17-3.513c-.46 2.17 2.06 5.51 3.9 7.588a39.98 39.98 0 0 0 1.76 1.888l2.24 3.58z" class="H"/><use xlink:href="#O" class="B C"/><path d="M1210.28 460.213c7.03 0 12.74-5.69 12.74-12.707s-5.7-12.707-12.74-12.707-12.74 5.69-12.74 12.707 5.7 12.707 12.74 12.707z" class="H"/><path d="M1231.13 512.44c-.24 2.858-2.4 7.583-2.4 7.583l-17.07 6.626-14.3-11.474v-.08c.22-1.282 3-17.423-.98-20.795-4.15-3.513-4.24-14.894-4.24-14.894s5.36-8.062 6.4-9.972c1.06-1.9 9.07-4.35 9.07-4.35-.35.602-.64 1.177-.9 1.72-.72 1.425-1.2 2.95-1.46 4.523-.35 2.476.32 3.93.77 4.597a4.82 4.82 0 0 1 .59 1.12c2.16 5.84 8.33 4.176 10.76 3.253.62-.237 1-.44 1-.44l9.83-.952s2.15 29.858 2.87 32.18c.1.443.13.902.07 1.353h0z" class="F"/><path d="M1206.7 466.817v.022l-.74 1.757h-6.53c1.08-.703 2.23-1.292 3.43-1.757l3.84-.022z" class="I"/><g class="E"><path d="M1205.57 469.768c-.15.523-.26 1.056-.34 1.594 0 .06 0 .123-.02.184h-7.92l1.08-1.778h7.2zm-.2 4.73h-9.96l1.14-1.756h8.6c0 .592.08 1.183.23 1.756h0zm1.37 2.973h-13.27l1.17-1.757h11.22l.17.28c.24.346.44.72.58 1.116l.13.36zm-14.58 1.958v.975h17.03a5.61 5.61 0 0 1-1.82-1.778h-14.68l-.53.803z"/></g><path d="M1228.3 480.403h-11.14l.2-.07 1-.44 9.83-.957.12 1.467z" class="I"/><g class="E"><path d="M1228.5 483.353h-36.1l-.16-1.756h36.1l.16 1.756zm.23 2.957h-35.9l-.28-1.757h36.02l.15 1.757zm.2 2.95h-35.4l-.44-1.778h35.72l.1 1.778zm.23 2.94h-34.43c-.3-.567-.57-1.154-.8-1.756h35.1l.13 1.756zm.25 2.965h-32.32a3.46 3.46 0 0 0-.71-.843 5.95 5.95 0 0 1-.88-.93h33.76l.15 1.774zm.24 2.942h-31.53a10.68 10.68 0 0 0-.47-1.756h31.85l.15 1.756z"/></g><g class="I"><path d="M1229.9 501.066h-31.44l-.16-1.756h31.45l.15 1.756zm.28 2.954h-31.7v-1.756h31.5l.18 1.756zm.32 2.952h-32.12l.1-1.756h31.83l.2 1.756zm.32 2.95h-32.73l.18-1.757h32.33l.22 1.757z"/></g><g class="E"><path d="M1231.13 512.47c0 .136-.03.267-.05.408h-33.37l.24-1.756h33.08v.03a3.45 3.45 0 0 1 .1 1.318h0zm-.27 1.585l-.5 1.778h-32.22l-.8-.637v-.083l.17-1.058h33.34zm-.9 2.933l-.7 1.756h-27.45l-2.2-1.756h30.34zm-1.2 2.972l-.05.097-4.33 1.677h-18.9l-2.2-1.756 25.47-.018z"/></g><g class="I"><path d="M1221.36 522.9l-4.6 1.774h-7.6l-2.2-1.774h14.4zm-7.63 2.956l-2.08.804-1-.804h3.08z"/></g><path d="M1231.13 512.44l-5.36 1.133-14.6 1.352-2-15.14s2.8-3.346 5.35-4.615c2.42-1.207 5.05-4.263 3.57-11.262-.1-.4-.18-.817-.3-1.247a17.19 17.19 0 0 1-.44-2.363c-.6-5.52 2.05-8.983 2.8-9.848.12-.145.2-.215.2-.215l.92-11.298c.17-.01.33-.01.5 0a39.98 39.98 0 0 0 1.76 1.888l2.24 3.587-1.4 14.868 3.78-.365s2.16 29.858 2.88 32.18c.12.437.16.893.1 1.344h0z" class="B C"/><g class="J"><path d="M1243.58 478.92c-1.95 2.067-3.13 4.736-3.36 7.565-.4 4.777-2.07 5.098-2.07 5.098l-.08 13.55s-1.28 3.11.16 4.54-11.98 3.907-11.98 3.907l-14.6 1.353-2-15.14s2.8-3.346 5.35-4.615 5.35-4.623 3.27-12.51c-1.8-6.894 1.5-11.228 2.37-12.212.12-.144.2-.215.2-.215l.92-11.298s2.5-.175 4.03 1.656c.32.395.66.766 1.04 1.11 1.03.944 1.94 1.15 3.03.487 1.44-.878 7.67-4.514 9.5-1.98 1.84 2.533 4.24 18.7 4.24 18.7z"/><use xlink:href="#P"/></g><g class="C"><use xlink:href="#P" class="B"/><path d="M1260.68 443.467v2.445l-10.3 2.85-2.4-1.23 8.77-3.412c.96-.44 1.6-.8 1.6-.975 0-.097-.1-.202-.28-.316l2.6.637z" class="B"/></g><path d="M1263.22 449.596l-6.87 1.915s-1.12 2.072-3.27 1.194-4.84-4.62-4.84-4.62l9-3.487 6 4.997z" class="J"/><path d="M1263.22 449.416l-6.87 1.915s-1.12 2.072-3.27 1.194-4.84-4.62-4.84-4.62l9-3.487 6 4.997z" class="B E"/><g class="C"><path d="M1146.36 570.118l12.84 7.302s-4.92 3.407-9.43 7.196c-4.68-2.336-9.08-4.487-12.47-6.5 3.9-1.968 9.06-8 9.06-8zm71.34 48.972c-3.4.25-8.8-.922-8.8-.922s-2.2-.193-5.55-.838l-.32-3.825c-.6-5.02 0-12.426 0-12.426l12.1.597 2.03 13.146c.46.764.62 2.28.54 4.268z" class="B"/></g><path d="M1231.76 562.842c-1.92 3.824-6.47 19.596-6.47 19.596a62.9 62.9 0 0 1-3.96 8.247c-2.16 3.583-3 11.11-4.2 17.203-1.2 6.095 1.2 4.663 1.32 7.768.12 3.104-11.5.597-11.5.597s-23.36-2.03-32.1-14.93-38.08-21.876-44.7-28.923 1-4.782.16-8.962 1.9-8.127 1.9-8.127 10.06-4.304 11.5-6.587 9.1-8.465 9.1-8.465 7.43-4.422 8.26-5.735c.84-1.313 9.7-6.213 12.46-7.29s5-5.502 5-5.502 1.8 0 4.08-2.867c2.27-2.867 12.93-6.455 12.93-6.455 20.5 11.232 33.16 7.6 33.16 7.6l.64 2.547c11.6 11.592 4.3 36.448 2.4 40.273z" class="F"/><g class="C"><path d="M1229.36 522.57s-15.44 7.4-33.77-10.157c20.48 11.232 33.14 7.6 33.14 7.6l.63 2.547zm-26.6 12.785l-18.8 35.373c-1.2 1.317 17.6-35.6 18.8-35.373zm9.7-3.702s-11.98 25.213-11.26 28.322c0 0 11.62-24.26 11.26-28.322zm9.58 5.257s-1.07 13.37 4.07 20.198l-4.07-20.198zm5.87 0s1.65 11.232 3.22 13.384l-3.22-13.384zm-38.1-5.257l-18.93 10.398h7.43l11.5-10.398zm27.86-92.226c-.9.8-1.6 1.958-2.77 2.27-.83.22-1.7-.053-2.53-.3-2.1-.6-4.43-.975-6.4-.03-2.8 1.348-3.96 4.926-6.76 6.296a5.23 5.23 0 0 1-2.21.538 5.25 5.25 0 0 1-2.23-.45c-1.24-.56-2.2-1.583-2.7-2.85-.82-2.16-.05-4.685 1.47-6.432 1.5-1.748 3.66-2.824 5.83-3.614 5.7-2.064 11.84-2.42 17.9-2.753.48-.074.98-.008 1.44.2 1 .553 3 3.754 2.82 4.952-.23 1.577-3.86.874-3.86 2.174z" class="B"/></g><path d="M1217.7 438.948c-.9.795-1.6 1.96-2.77 2.27-.83.224-1.7-.048-2.53-.29-2.1-.602-4.43-.975-6.4-.03-2.8 1.348-3.96 4.93-6.76 6.296-.86.422-1.82.6-2.77.52a5.17 5.17 0 0 1-1.67-.439c-1.24-.56-2.2-1.584-2.7-2.85-.82-2.16-.05-4.685 1.47-6.428 1.5-1.744 3.66-2.828 5.83-3.62 5.7-2.063 11.84-2.42 17.9-2.753.48-.072 1-.005 1.44.194 1 .553 3 3.75 2.82 4.948-.23 1.625-3.86.883-3.86 2.182z" class="I"/><path d="M1141.7 458.28l-.88 7.944-2.68-1.168-14.52-6.354s-10.24.957-12.1-7.113 11.32-1.555 12.03-1.015c.72.54 2.34 1.427 2.34 1.427l15.8 6.28z" class="H"/><g class="C"><path d="M1141.7 458.28l-.88 7.944-2.68-1.168c.1-3.557.53-6.872 1.2-7.7l2.35.935zm72.97 41.667l-.64 16.408-16.67-1.273c.23-1.282 3-17.423-.97-20.795-4.15-3.513-4.24-14.894-4.24-14.894s5.34-8.05 6.4-9.96c1.06-1.9 9.07-4.35 9.07-4.35.24-.765.34-1.567.3-2.367.34.513.62 1.06.85 1.63.36 2.933-.55 5.094-3.5 6.982-.26.167-.53.33-.82.492a20.46 20.46 0 0 1-1.54.768l-.25.114c-5.03 2.23-5.75 5.498-5.75 5.498-1.52 2.643-1.98 5.763-1.28 8.73 1.18 4.904 19.06 13.02 19.06 13.02z" class="B"/></g><path d="M1213.7 499.947l-.64 16.408-18.76-1.43s-.24-6.147.72-8.782c.95-2.634-.56-12.184-.56-12.184-8.86-7.333-5.67-14.662-5.67-14.662s-23.33-.715-23.8-1.352c-.47-.637-8.62-3.75-8.62-3.75s-8.55-1.032-9.83-2.068c-.47-.394-.98-.744-1.5-1.045-.16-.088-.32-.166-.48-.233l.08 5.34c-.06.004-.13.004-.2 0h-.1c-1.35.045-2.68-.27-3.87-.914-2.07-1.194-1.76-17.29 0-18.08.34-.137.7-.187 1.06-.145 1.44.1 3.34 1.115 4.22 1.615l.48.3s10.85 2.696 13.17 4.3c2.3 1.594 18.7 1.84 18.7 1.84s7.43.764 8.23-.39 11.57-4.26 12.7-2.823 3.65.878 3.65.878c1.54-2.318 2.9-1.673 3.82-.584a8.21 8.21 0 0 1 1.27 2.195c.4 3.193-.7 5.467-4.3 7.465-.54.3-1.14.593-1.8.878-5.03 2.23-5.75 5.498-5.75 5.498-1.52 2.642-1.98 5.762-1.28 8.73 1.18 4.904 19.06 13.02 19.06 13.02z" class="J"/><path d="M1141.55 457.026a1.61 1.61 0 0 0-.58.145c-1.76.8-2.07 16.887 0 18.08 1.04.587 2.2.92 3.4.97h.1c.06.004.13.004.2 0l-.08-5.34c.16.067.32.145.48.233v-.233c-.75-1.952-1.04-4.05-.85-6.13.18-2.08.84-4.093 1.92-5.883l-4.57-1.844z" class="B C"/><use xlink:href="#Q" class="J"/><use xlink:href="#Q" class="B E"/><path d="M1203.45 471.82l-2.95-2.12 6-7.54c.53.663.96 1.403 1.27 2.195.4 3.184-.72 5.458-4.32 7.465z" class="J"/><g class="C"><path d="M1203.45 471.647l-2.95-2.12 6-7.54a8.51 8.51 0 0 1 1.27 2.196c.4 3.188-.72 5.458-4.32 7.464zm14.25-33.65c-.9.8-1.6 1.953-2.77 2.265-.83.224-1.7-.048-2.53-.285-2.1-.606-4.44-.98-6.4-.03-2.8 1.348-3.96 4.927-6.77 6.297-.86.418-1.8.595-2.77.513a5.1 5.1 0 0 1-2.65-1.008 5.09 5.09 0 0 1-1.7-2.267 4.73 4.73 0 0 1-.3-1.388 5.47 5.47 0 0 0 .3 2.34c.48 1.267 1.45 2.292 2.7 2.85a5.13 5.13 0 0 0 1.66.439 5.24 5.24 0 0 0 2.77-.518c2.8-1.365 3.96-4.948 6.77-6.296 1.96-.944 4.3-.57 6.4.03.83.242 1.7.514 2.53.3 1.17-.312 1.86-1.475 2.77-2.27 0-1.317 3.63-.58 3.86-2.173.02-.24 0-.48-.07-.712-.56 1.265-3.8.698-3.8 1.924zm-6.05 37.656s2 3.88.32 5.493c0 0 1.32-5.656 2.52-5.708" class="B"/></g><path d="M1116.1 447.72s10.44 6.88 3.83 9.063-3.83-9.063-3.83-9.063z" class="H"/></g><path d="M-139.71 564.527l42.02-64.244h82.613l50.486 63.13-1.02.842h.364v131.31h-174.405l-.058-131.037z" class="G"/><g class="D"><path d="M73.98 348.797h-8.67v27.822h8.67v-27.822z"/><path d="M73.36 374.235H-.324V696.18H73.36V374.235z"/></g><path d="M103.083 374.235H73.36V696.18h29.722V374.235z" class="G"/><g class="E"><path d="M24.135 402.057H13v14.3h11.145v-14.3zm17.957 0H30.946v14.3h11.146v-14.3zm17.956 0H48.903v14.3H60.05v-14.3zM24.444 434.65H13.3v14.308h11.146V434.65zm17.956 0H31.256v14.308H42.4V434.65zm17.958 0H49.212v14.308h11.146V434.65zm-35.604 32.6H13.608v14.308h11.146V467.24zm17.956 0H31.565v14.308H42.7V467.24zm17.958 0H49.522v14.308h11.145V467.24zm-35.604 32.593H13.918v14.308h11.146v-14.308zm17.956 0H31.875v14.308H43.02v-14.308zm17.957 0H49.832v14.308h11.146v-14.308zm-35.604 32.59H14.228v14.3h11.146v-14.3zm17.957 0H32.185v14.3H43.33v-14.3zm17.957 0H50.14v14.3h11.146v-14.3zm-35.604 32.592H14.537v14.3h11.146v-14.3zm17.957 0H32.494v14.3H43.64v-14.3zm17.956 0H50.45v14.3h11.146v-14.3zm-35.604 32.592H14.847v14.3h11.146v-14.3zm17.958 0H32.804v14.3H43.95v-14.3zm17.956 0H50.76v14.3h11.146v-14.3zM26.302 630.2H15.156v14.3h11.146v-14.3zm17.958 0H33.113v14.3H44.26v-14.3zm0 38.157H33.113v27.027H44.26v-27.027zM62.215 630.2H51.07v14.3h11.146v-14.3z"/></g><path d="M78.315 348.797H73.36v27.027h4.954v-27.027z" class="G"/><g class="D"><path d="M166.86 490.294h-8.67v16.49h8.67v-16.49z"/><path d="M166.24 505.37H92.556v190.81h73.685V505.37z"/></g><path d="M195.963 505.37H166.24v190.81h29.722V505.37z" class="G"/><g class="E"><path d="M118.253 532.424h-11.146v14.3h11.146v-14.3zm17.947 0h-11.146v14.3H136.2v-14.3zm17.967 0H143.02v14.3h11.146v-14.3zm-35.604 32.592h-11.146v14.3h11.146v-14.3zm17.957 0h-11.146v14.3h11.146v-14.3zm17.956 0H143.33v14.3h11.145v-14.3zm-35.604 32.592h-11.145v14.3h11.145v-14.3zm17.958 0h-11.145v14.3h11.145v-14.3zm17.956 0H143.64v14.3h11.146v-14.3zM119.182 630.2h-11.146v14.3h11.146v-14.3zm17.958 0h-11.146v14.3h11.146v-14.3zm0 38.157h-11.146v27.027h11.146v-27.027zm17.955-38.157H143.95v14.3h11.145v-14.3z"/></g><g class="G"><path d="M171.195 490.294h-4.954v16.018h4.954v-16.018zM315 695.22h-549.85V697H315v-1.78z"/></g><path d="M218.662 658.882c8.906 0 16.125-9.268 16.125-20.7s-7.22-20.7-16.125-20.7-16.124 9.268-16.124 20.7 7.22 20.7 16.124 20.7z" class="D"/><path opacity=".2" d="M230.656 624.356c1.504 4.516 1.708 9.572.576 14.264s-3.528 8.714-6.757 11.348-7.084 3.707-10.874 3.03-7.267-3.065-9.812-6.733c.918 2.76 2.293 5.23 4.03 7.24s3.792 3.51 6.024 4.4 4.6 1.143 6.907.745 4.54-1.436 6.512-3.045 3.65-3.75 4.916-6.273 2.087-5.37 2.4-8.342.138-6-.54-8.87-1.836-5.52-3.39-7.76h0z" class="C"/><g class="G"><path d="M218.706 638.182h.045l.797 58.688h-1.683l.84-58.688z"/><path d="M221.642 670.15l-.37-.906-2.665 1.802.37.906 2.665-1.802z"/></g><path d="M266.067 639.102c13.542 0 24.52-14.093 24.52-31.478s-10.978-31.48-24.52-31.48-24.52 14.094-24.52 31.48 10.978 31.478 24.52 31.478z" class="D"/><path opacity=".2" d="M284.307 586.6c2.287 6.868 2.597 14.557.875 21.692s-5.364 13.25-10.276 17.256-10.772 5.637-16.535 4.606-11.05-4.66-14.922-10.238c1.397 4.196 3.488 7.952 6.13 11.008s5.766 5.338 9.16 6.69 6.98 1.737 10.503 1.134 6.903-2.184 9.903-4.63 5.55-5.702 7.475-9.54 3.174-8.166 3.665-12.686.2-9.123-.822-13.5-2.792-8.393-5.156-11.8h0z" class="C"/><g class="G"><path d="M266.135 607.624h.067l1.213 89.247h-2.56l1.28-89.247z"/><path d="M270.6 656.236l-.565-1.377-4.054 2.74.565 1.377 4.054-2.74zm-254.205 29.61c-1.515 0-3.004.512-4.316 1.486-1.332-1.546-2.985-2.563-4.76-2.927s-3.6-.058-5.232.878-3.035 2.466-4.013 4.4-1.497 4.2-1.495 6.497H25.03c-.155-2.806-1.132-5.43-2.735-7.35s-3.712-2.984-5.902-2.985h0zm95.975 0c-1.515 0-3.004.512-4.316 1.486-1.332-1.546-2.985-2.563-4.758-2.927s-3.592-.058-5.233.878-3.035 2.466-4.013 4.4-1.497 4.2-1.495 6.497h28.452c-.156-2.806-1.133-5.43-2.735-7.35s-3.712-2.984-5.903-2.985h0zm126.317 0c-1.515 0-3.003.512-4.315 1.486-1.332-1.546-2.985-2.563-4.76-2.927s-3.6-.058-5.232.878-3.036 2.466-4.013 4.4-1.497 4.2-1.495 6.497h28.452c-.155-2.806-1.132-5.43-2.735-7.35s-3.712-2.984-5.903-2.985h0zm60.683 0c-1.515 0-3.004.512-4.315 1.486-1.333-1.546-2.986-2.563-4.76-2.927s-3.592-.058-5.233.878-3.035 2.466-4.013 4.4-1.496 4.2-1.494 6.497h28.452c-.156-2.806-1.133-5.43-2.735-7.35s-3.712-2.984-5.903-2.985h0z"/></g><g fill="#f2f2f2"><path d="M316.346 210.42H213.273a5.67 5.67 0 0 0-5.673 5.666v1.007a5.67 5.67 0 0 0 5.673 5.667h103.073a5.67 5.67 0 0 0 5.673-5.667v-1.007a5.67 5.67 0 0 0-5.673-5.666z"/><path d="M341.974 220.935H238.902a5.67 5.67 0 0 0-5.674 5.666v1.007a5.67 5.67 0 0 0 5.674 5.667h103.072c3.133 0 5.674-2.537 5.674-5.667V226.6c0-3.13-2.54-5.666-5.674-5.666z"/><path d="M298.493 230.072H195.42a5.67 5.67 0 0 0-5.673 5.666v1.007a5.67 5.67 0 0 0 5.673 5.667h103.073a5.67 5.67 0 0 0 5.673-5.667v-1.007a5.67 5.67 0 0 0-5.673-5.666zM201.92 125.394H98.848a5.67 5.67 0 0 0-5.674 5.667v1.007a5.67 5.67 0 0 0 5.674 5.666H201.92a5.67 5.67 0 0 0 5.674-5.666v-1.007a5.67 5.67 0 0 0-5.674-5.667z"/><path d="M227.555 135.908H124.482a5.67 5.67 0 0 0-5.673 5.666v1.007a5.67 5.67 0 0 0 5.673 5.667h103.073a5.67 5.67 0 0 0 5.673-5.667v-1.007a5.67 5.67 0 0 0-5.673-5.666z"/><path d="M184.073 145.05H81a5.67 5.67 0 0 0-5.674 5.666v1.007a5.67 5.67 0 0 0 5.674 5.667h103.072a5.67 5.67 0 0 0 5.674-5.667v-1.007a5.67 5.67 0 0 0-5.674-5.666z"/></g><g opacity=".5"><path opacity=".5" d="M154.508 147.338c25.53 0 46.227-20.67 46.227-46.17S180.04 55 154.508 55s-46.227 20.67-46.227 46.17 20.697 46.17 46.227 46.17z" fill="url(#B)"/></g><path d="M154.508 142.308c22.75 0 41.192-18.42 41.192-41.14s-18.442-41.14-41.192-41.14-41.19 18.42-41.19 41.14 18.442 41.14 41.19 41.14z" fill="#fccc63"/></g><defs><linearGradient id="A" x1="1183.56" y1="677.558" x2="1183.56" y2="420.204" gradientUnits="userSpaceOnUse"><stop stop-color="gray" stop-opacity=".25"/><stop offset=".54" stop-color="gray" stop-opacity=".12"/><stop offset="1" stop-color="gray" stop-opacity=".1"/></linearGradient><linearGradient id="B" x1="18530.7" y1="15041.4" x2="18530.7" y2="55" gradientUnits="userSpaceOnUse"><stop stop-color="gray" stop-opacity=".25"/><stop offset=".54" stop-color="gray" stop-opacity=".12"/><stop offset="1" stop-color="gray" stop-opacity=".1"/></linearGradient><clipPath id="C"><path d="M0 0h1280v702H0z" class="E"/></clipPath><clipPath id="D"><path d="M872 317h445v371H872z" class="E"/></clipPath><path id="E" d="M1064.58 407.457s-3 1.352-3.45-1.555a9.72 9.72 0 0 0 3.26-1.984c1.26-1.27 2.47-4.136 2.18-5.915 2.38-.606 2.2.91 2.2.91 1.9 3.31-4.2 8.545-4.2 8.545z"/><path id="F" d="M1077.06 452.925c-.36 2.388-1.05 4.714-2.07 6.906l-.88 1.853c-8.28 15.87-31.32 31.37-48.5 29.042-16.06-2.174-28.466-13.204-31.806-26.7a39.06 39.06 0 0 1-.44-2.002 30.34 30.34 0 0 1-.185-9.353c2.016-14.77 14.52-25.818 30.04-28.027 1.37-.2 2.75-.327 4.13-.378.67-.03 1.35-.04 2.03-.03 1.74.01 3.5.134 5.2.37l2.9.44c.1 0 .16.03.25.04 5.94.88 11.8 2.242 17.53 4.075 1.76.584 3.46 1.207 5.1 1.92 1.14.478 2.25.992 3.32 1.537 4.8 2.432 8.73 5.475 11.1 9.273.24.378.44.76.66 1.16l.1.185a15.42 15.42 0 0 1 1.56 5.089c.2 1.533.18 3.085-.04 4.615z"/><path id="G" d="M1084.3 447.695c-.1-1.28-.47-2.527-1.05-3.67a7.93 7.93 0 0 0-1.5-1.756c-.17-.156-.35-.303-.54-.44-.88-.747-1.94-1.257-3.08-1.48.06-2.44 1.48-1.875 1.48-1.875 1.64-.4 3.22.8 4.47 2.244l.53.65c.8 1.076 1.53 2.225 2.13 3.433 0 0 .5 3.25-2.44 2.894z"/><path id="H" d="M1102.7 366.977c-3.58 8.154-8.2 16.822-13.66 23.43-4.2 5.09-8.9 8.944-14.03 10.41a15.79 15.79 0 0 1-6.81.439 17.26 17.26 0 0 1-4.46-1.317c-10-4.37-18.84-17.85-22.72-32.054-2.68-9.85-2.98-20.014.4-27.715 8.26-18.776 28.67-28.02 45.6-20.624s23.92 28.628 15.67 47.43z"/><path id="I" d="M1076.96 406.36c-.14 3.794-8.06 5.098-8.06 5.098s-3.26-.413-2.12-3.122a9.82 9.82 0 0 0 3.82 0c1.73-.44 4.27-2.235 4.95-3.908 2.34.72 1.4 1.932 1.4 1.932z"/><path id="J" d="M1044.85 418.974a10.03 10.03 0 0 0-1.05-3.671c-.88-1.54-3.33-3.477-5.13-3.675.06-2.44 1.48-1.875 1.48-1.875 3.7-.904 7.12 6.328 7.12 6.328s.5 3.24-2.42 2.893z"/><path id="K" d="M1036.9 392.98c-.9 2.114-2.28 4-4 5.528-1.17 1.03-2.46 1.9-3.86 2.586a24.34 24.34 0 0 1-6.22 2.073l-2.7.44c-.06 0-.1 0-.17.022-10.6 1.22-23.98-1.9-34.715-7.904-7.3-4.07-13.383-9.458-16.52-15.7-9.212-18.354-3.3-39.923 13.203-48.182s37.373-.08 46.583 18.293c3.08 6.147 6 12.944 7.92 19.6a43.05 43.05 0 0 1 .49 1.796c2.1 7.95 2.6 15.583 0 21.45z"/><path id="L" d="M1041.2 404.47s-2.4 2.244-3.77-.36c1-.81 1.83-1.807 2.45-2.933.78-1.603 1-4.707.15-6.3 2.05-1.317 2.38.154 2.38.154 2.84 2.524-1.2 9.44-1.2 9.44z"/><path id="M" d="M1083.4 418.76c-.03 2.45-1.46 1.897-1.46 1.897-3.68.944-7.2-6.266-7.2-6.266s-.53-3.232 2.4-2.915a9.77 9.77 0 0 0 1.09 3.653c.9 1.537 3.36 3.455 5.16 3.63z"/><path id="N" d="M1098.77 442.847s-2.4 2.24-3.77-.364a9.94 9.94 0 0 0 2.46-2.933c.77-1.603 1-4.707.14-6.297 2.06-1.34 2.4.15 2.4.15 2.84 2.533-1.22 9.444-1.22 9.444z"/><path id="O" d="M1210.28 460.692c7.03 0 12.74-5.69 12.74-12.707s-5.7-12.707-12.74-12.707-12.74 5.69-12.74 12.707 5.7 12.707 12.74 12.707z"/><path id="P" d="M1226.8 461.702l-1.5 7.715-4.67 1.027.2-.215.92-11.298s2.5-.175 4.03 1.656c.32.396.66.77 1.04 1.115z"/><path id="Q" d="M1144.57 470.883l.08 5.34a7.46 7.46 0 0 1-4.16-.949c-2.07-1.194-1.76-17.29 0-18.08 1.4-.633 4.16.83 5.28 1.47a13.82 13.82 0 0 0-2.04 5.968c-.2 2.12.08 4.26.84 6.25h0z"/></defs></svg>