<svg xmlns="http://www.w3.org/2000/svg" xmlns:xlink="http://www.w3.org/1999/xlink" width="1280" height="720" fill="none"><style><![CDATA[.M{opacity:.5}.N{opacity:.1}.O{fill:#000}.P{fill:#0083ff}.Q{fill:#333}.R{fill:#fff}.S{fill:#fda57d}.T{fill:#be7c5e}.U{fill:#f5f5f5}.V{fill:#47e6b1}.W{fill:#fdb797}.X{fill:#69f0ae}]]></style><circle cx="180" cy="656" r="15" class="V"/><g class="P"><circle cx="137" cy="86" r="15"/><circle cx="80" cy="603" r="50"/></g><circle cx="1168" cy="589" r="33" class="V"/><circle cx="1125.5" cy="100.5" r="29.5" class="P"/><g clip-path="url(#N)"><g class="M"><path d="M250.62 313.137l-145.63.352a6.01 6.01 0 0 0-2.289.458c-.726.3-1.385.74-1.94 1.293a5.95 5.95 0 0 0-1.292 1.932 5.91 5.91 0 0 0-.449 2.277l.66 270.535a5.91 5.91 0 0 0 .461 2.274 5.93 5.93 0 0 0 1.302 1.925 5.98 5.98 0 0 0 1.945 1.284 6.02 6.02 0 0 0 2.292.446l145.63-.352a6.02 6.02 0 0 0 2.29-.459c.726-.3 1.385-.74 1.94-1.294a5.92 5.92 0 0 0 1.292-1.934c.3-.722.45-1.496.448-2.278l-.66-270.534c-.002-.78-.16-1.553-.462-2.273s-.746-1.374-1.303-1.924-1.218-.986-1.945-1.283a6.01 6.01 0 0 0-2.29-.445h0z" fill="url(#A)" class="M"/></g><path d="M248.5 316.83l-141.392.343c-3.3.008-5.968 2.67-5.96 5.948l.647 263.044c.008 3.277 2.7 5.927 6 5.92l141.393-.343c3.3-.008 5.967-2.672 5.96-5.95L254.5 322.75c-.008-3.277-2.7-5.927-6-5.92z" class="R"/><path opacity=".4" d="M216.353 323.8a12.32 12.32 0 0 1-4.15 7.512 12.48 12.48 0 0 1-8.074 3.02l-52.965.126a12.48 12.48 0 0 1-8.081-2.984c-2.25-1.92-3.732-4.576-4.183-7.487l-28.052.07a5.86 5.86 0 0 0-2.229.445 5.82 5.82 0 0 0-1.886 1.258 5.79 5.79 0 0 0-1.259 1.88 5.77 5.77 0 0 0-.438 2.215l.608 249.56a5.77 5.77 0 0 0 .449 2.214 5.8 5.8 0 0 0 1.268 1.874 5.84 5.84 0 0 0 4.126 1.684l134.022-.322a5.85 5.85 0 0 0 2.228-.445 5.82 5.82 0 0 0 1.887-1.258 5.79 5.79 0 0 0 1.259-1.88 5.77 5.77 0 0 0 .438-2.215l-.6-249.56a5.75 5.75 0 0 0-.448-2.213 5.78 5.78 0 0 0-1.267-1.874 5.82 5.82 0 0 0-1.893-1.25c-.707-.3-1.465-.437-2.23-.435l-28.52.065z" class="P"/><g fill="#dbdbdb"><path d="M192.646 326.962l-32.415.483c-.484.007-.87.403-.863.883l.006.383c.007.48.405.864.9.857l32.416-.483c.483-.008.87-.403.862-.883l-.006-.383c-.007-.48-.405-.864-.9-.857zm8.164 1.998a1.28 1.28 0 0 0 1.264-1.294 1.283 1.283 0 1 0-2.566.039 1.28 1.28 0 0 0 1.302 1.255z"/></g><g class="M"><path d="M196.048 513.524a42.77 42.77 0 0 0-5.61-21.185 43.13 43.13 0 0 0-15.39-15.692 43.51 43.51 0 0 0-21.176-6.125c-7.473-.192-14.868 1.54-21.466 5.03a43.2 43.2 0 0 0-16.186 14.88 42.81 42.81 0 0 0-6.704 20.87c-.383 7.415 1.173 14.802 4.517 21.443a43.1 43.1 0 0 0 14.566 16.45l.026.192a14.83 14.83 0 0 0 4.91 3.101l.057-.2c2.028 1.74 10.564 4.494 20.37 4.468h.214c6.2 0 12.956-1.088 18.886-4.277 0 0 .053-.113.13-.326a15.41 15.41 0 0 0 4.082-2.775l.07-.488a43.05 43.05 0 0 0 13.745-15.396 42.71 42.71 0 0 0 4.957-19.98h0z" fill="url(#B)" class="M"/></g><path d="M152.75 555.243c23.195 0 41.998-18.676 41.998-41.714s-18.803-41.714-41.998-41.714-41.998 18.676-41.998 41.714 18.804 41.714 41.998 41.714z" class="U"/><g class="S"><path d="M136.706 530.682s-10.007.813-7.358 18.92c1.37 1.3 3 2.335 4.76 3.02l5.628-18.92-3.03-3.02zm32.472 0s10.008.813 7.358 18.92a14.39 14.39 0 0 1-4.76 3.019l-5.63-18.928 3.03-3z"/></g><g class="Q"><path d="M137.14 501s-4.76 13.764-7.358 12.46c0 0 25.06 21.503 47.192 0 0 0-3.898-6.882-9.526-12.472l-30.308.013z"/><use xlink:href="#P"/></g><g class="O"><path d="M168.985 530.682h-32.467l-3.03 12.902s-1.778 5.973.438 8.6 22.898 8.6 38.104.435a16.72 16.72 0 0 0 .438-10.75c-1.752-6.02-.438-.435-.438-.435l-3.044-10.753z" class="N"/><path d="M169.42 530.682h-32.472l-3.03 12.902s-1.778 5.973.438 8.6 22.898 8.6 38.104.435a16.71 16.71 0 0 0 .438-10.75c-1.752-6.02-.438-.435-.438-.435l-3.04-10.753z" class="N"/></g><path d="M169.178 530.682h-32.472l-3.03 12.902s-1.778 5.973.438 8.6 22.898 8.6 38.105.435c1.326-3.44 1.48-7.215.438-10.75-1.752-6.02-.438-.435-.438-.435l-3.04-10.753z" class="P"/><path d="M146.666 519.976h13v12.485c0 .563-.112 1.12-.33 1.64s-.534.992-.935 1.4a4.32 4.32 0 0 1-1.399.929 4.35 4.35 0 0 1-1.651.326h-4.38c-1.144 0-2.242-.452-3.05-1.255a4.27 4.27 0 0 1-1.263-3.03v-12.485h.008z" class="N O"/><path d="M146.666 519.502h13v12.485a4.25 4.25 0 0 1-1.264 3.029 4.32 4.32 0 0 1-1.399.928 4.33 4.33 0 0 1-1.651.327h-4.38a4.33 4.33 0 0 1-3.05-1.255 4.27 4.27 0 0 1-1.263-3.03V519.5h.008z" class="S"/><path d="M146.692 521.36a18.81 18.81 0 0 0 12.99.035V519.8h-13v1.55z" class="N O"/><path d="M153.204 522.225c10.283 0 18.62-8.28 18.62-18.493s-8.336-18.493-18.62-18.493-18.618 8.28-18.618 18.493 8.336 18.493 18.618 18.493z" class="S"/><use xlink:href="#V" class="Q"/><g class="S"><path d="M134.976 506.168c.956 0 1.73-1.443 1.73-3.223s-.774-3.224-1.73-3.224-1.73 1.443-1.73 3.224.775 3.223 1.73 3.223zm36.366 0c.955 0 1.73-1.443 1.73-3.223s-.775-3.224-1.73-3.224-1.73 1.443-1.73 3.224.774 3.223 1.73 3.223z"/></g><path d="M135.4 497.185h35.502s-3.03-14.238-16.45-13.33-19.052 13.33-19.052 13.33z" class="N O"/><g class="M"><path d="M160.953 400.08a42.77 42.77 0 0 1 5.61-21.186 43.13 43.13 0 0 1 15.39-15.692c6.408-3.823 13.703-5.933 21.176-6.125s14.868 1.54 21.466 5.03a43.18 43.18 0 0 1 16.185 14.882c4.012 6.265 6.32 13.455 6.704 20.87a42.74 42.74 0 0 1-4.517 21.442c-3.344 6.64-8.362 12.307-14.565 16.45l-.027.192a14.83 14.83 0 0 1-4.91 3.136l-.057-.2c-2.028 1.74-10.564 4.494-20.37 4.468h-.214c-6.2 0-12.956-1.088-18.886-4.277 0 0-.053-.113-.132-.326a15.42 15.42 0 0 1-4.082-2.775l-.07-.488c-5.774-3.953-10.494-9.243-13.752-15.412a42.71 42.71 0 0 1-4.949-19.998h0z" fill="url(#C)" class="M"/></g><path d="M204.247 441.798c23.195 0 41.998-18.676 41.998-41.714s-18.803-41.714-41.998-41.714-41.997 18.676-41.997 41.714 18.803 41.714 41.997 41.714z" class="U"/><g class="T"><path d="M187.784 415.97s-10.008.814-7.358 18.92c1.37 1.306 3 2.33 4.76 3l5.628-18.92-3.03-3zm32.466 0s10.007.814 7.358 18.92a14.39 14.39 0 0 1-4.761 3.01l-5.628-18.92 3.03-3z"/></g><g class="Q"><path d="M188.212 386.298l-1.86 4.786c-2.383 5.655.337 27.28 6.035 29.58 6.395 2.6 14.804 4.246 23.542 1.083 7.6-2.75 9.933-27.406 4.564-33.388a46.39 46.39 0 0 0-1.976-2.083l-30.304.02z"/><use xlink:href="#Q"/></g><g class="O"><path d="M220.063 415.97H187.6l-3.03 12.903s-1.778 5.973.438 8.6 22.898 8.6 38.104.435a16.71 16.71 0 0 0 .438-10.749c-1.75-6.02-.438-.435-.438-.435l-3.04-10.754z" class="N"/><path d="M220.492 415.97H188.02L185 428.873s-1.778 5.973.438 8.6 22.898 8.6 38.105.435c1.326-3.44 1.48-7.215.438-10.75-1.752-6.02-.438-.435-.438-.435l-3.04-10.754z" class="N"/></g><path d="M220.25 415.97h-32.467l-3.03 12.903s-1.778 5.973.438 8.6 22.898 8.6 38.104.435a16.71 16.71 0 0 0 .438-10.749c-1.752-6.02-.438-.435-.438-.435l-3.044-10.754z" fill="#f55f44"/><path d="M197.74 405.27h13v12.485a4.27 4.27 0 0 1-1.263 3.03c-.8.803-1.907 1.255-3.05 1.255h-4.38a4.33 4.33 0 0 1-3.05-1.255 4.27 4.27 0 0 1-1.264-3.03V405.27h.018z" class="N O"/><path d="M197.74 404.8h13v12.485a4.27 4.27 0 0 1-1.263 3.03 4.33 4.33 0 0 1-3.051 1.255h-4.38c-1.144 0-2.24-.45-3.05-1.255a4.27 4.27 0 0 1-1.264-3.03V404.8h.018z" class="T"/><path d="M197.77 406.65a18.81 18.81 0 0 0 12.99.034V405.1h-13v1.55z" class="N O"/><path d="M204.278 407.514c10.282 0 18.618-8.28 18.618-18.492s-8.336-18.493-18.618-18.493-18.62 8.28-18.62 18.493 8.336 18.492 18.62 18.492z" class="T"/><path d="M186.482 382h35.503s-3.03-14.238-16.45-13.33S186.482 382 186.482 382z" class="Q"/><g class="T"><path d="M186.05 391.458c.955 0 1.73-1.444 1.73-3.224s-.775-3.223-1.73-3.223-1.73 1.443-1.73 3.223.774 3.224 1.73 3.224zm36.365 0c.956 0 1.73-1.444 1.73-3.224s-.774-3.223-1.73-3.223-1.73 1.443-1.73 3.223.775 3.224 1.73 3.224z"/></g><path d="M186.482 382.48h35.503s-3.03-14.238-16.45-13.33-19.053 13.33-19.053 13.33z" class="N O"/><g class="M"><path d="M11.2 362.78v62.086h98.484s7.27 14.212 19.77 18.345c0 0-4-10.066.175-18.345h27.417V362.78H11.2z" fill="url(#D)" class="M"/></g><path d="M15.132 364.908v58.728h98.545s0 11.746 11.826 15.66c0 0-3.942-7.83 0-15.66h27.593v-58.728H15.132z" class="R"/><g class="P"><path d="M105.793 376.654H26.957v7.83h78.836v-7.83zm27.593 11.746H26.957v7.83h106.43v-7.83zm-11.826 11.745H26.957v7.83h94.604v-7.83z"/></g><g class="M"><path d="M346.245 482.412v62.086h-98.48S240.495 558.7 228 562.843c0 0 4-10.067-.175-18.345h-27.418v-62.086h145.848z" fill="url(#E)" class="M"/></g><path d="M342.303 484.54v58.728h-98.545s0 11.745-11.826 15.66c0 0 3.942-7.83 0-15.66H204.34V484.54h137.964z" class="R"/><g class="P"><path d="M299.38 496.285h-78.837v7.83h78.837v-7.83zm27.594 11.745h-106.43v7.83h106.43v-7.83zm-11.826 11.746h-94.604v7.83h94.604v-7.83z"/></g><g class="V"><g class="M"><path d="M47.105 604.605H45.8V612h1.314v-7.395z" class="M"/><path d="M50.17 608.955v-1.305h-7.446v1.305h7.446z" class="M"/><path d="M287.555 377.524h-1.314v7.395h1.314v-7.395z"/><path d="M290.62 381.874v-1.305h-7.446v1.305h7.446z"/><path d="M315.586 560.233h-1.314v7.395h1.314v-7.395z"/><path d="M318.652 564.583v-1.305h-7.446v1.305h7.446z"/><path d="M232.808 294h-1.314v7.395h1.314V294z"/><path d="M235.874 298.35v-1.305h-7.446v1.305h7.446z"/></g></g></g><g clip-path="url(#O)"><g class="M"><path d="M917.257 368.542L917 184.25a6.95 6.95 0 0 1 2.037-4.916 6.96 6.96 0 0 1 4.919-2.036l289.844-.386a6.96 6.96 0 0 1 4.92 2.036c1.3 1.304 2.04 3.072 2.04 4.916l.25 184.294c0 .912-.18 1.816-.53 2.66a7.13 7.13 0 0 1-1.5 2.255 6.79 6.79 0 0 1-2.25 1.507c-.85.35-1.75.53-2.67.53l-289.84.386a6.96 6.96 0 0 1-4.917-2.037 6.95 6.95 0 0 1-2.036-4.915h0z" fill="url(#F)" class="M"/></g><path d="M1197.27 190.785l-257.815.36.24 171.152 257.816-.36-.24-171.152z" fill="url(#G)"/><path d="M1211.68 182.924l-284.412.397a4.41 4.41 0 0 0-4.403 4.413l.247 177.314a4.41 4.41 0 0 0 4.416 4.402l284.412-.397c2.44-.004 4.4-1.98 4.4-4.414l-.25-177.314c0-2.434-1.98-4.405-4.42-4.4z" class="R"/><path opacity=".2" d="M1193.53 356.655V195.917H947.58v160.738h245.95z" class="P"/><g fill="#dbdbdb"><path d="M935.422 283.867c3.75 0 6.8-2.966 6.8-6.625s-3.04-6.625-6.8-6.625-6.8 2.966-6.8 6.625 3.04 6.625 6.8 6.625zm268.798-32.66c1.25 0 2.27-1 2.27-2.208s-1.02-2.207-2.27-2.207-2.26.988-2.26 2.207 1 2.208 2.26 2.208zm1.62 36.797l-.04-28.176c0-.146-.12-.264-.27-.263l-1.73.002c-.15 0-.27.12-.27.265l.04 28.175c0 .146.12.264.27.264l1.73-.003c.15 0 .27-.118.27-.264z"/></g><g class="M"><path d="M1188.45 172.778c0-6.35-1.64-12.59-4.78-18.117-3.13-5.526-7.63-10.148-13.08-13.416s-11.65-5.07-18-5.233a36.85 36.85 0 0 0-32 17.038c-3.4 5.36-5.37 11.508-5.7 17.85-.32 6.342 1 12.66 3.85 18.338a36.71 36.71 0 0 0 12.38 14.069l.02.163c1.2 1.152 2.62 2.055 4.17 2.656l.05-.164c1.74 1.477 8.98 3.84 17.32 3.824h.18c5.28 0 11-.932 16.05-3.657 0 0 .05-.097.12-.278 1.28-.6 2.45-1.4 3.48-2.374.02-.14.04-.28.05-.417a36.75 36.75 0 0 0 11.69-13.181 36.77 36.77 0 0 0 4.2-17.101h0z" fill="url(#H)" class="M"/></g><path d="M1151.65 208.46c19.7 0 35.7-15.972 35.7-35.676s-15.98-35.676-35.7-35.676-35.7 15.973-35.7 35.676 15.98 35.676 35.7 35.676z" class="U"/><g class="S"><path d="M1138 187.453s-8.5.695-6.26 16.184a12.25 12.25 0 0 0 4.05 2.576l4.8-16.184-2.58-2.576zm27.6 0s8.5.695 6.26 16.184a12.15 12.15 0 0 1-4.05 2.576l-4.78-16.184 2.57-2.576z"/></g><g class="Q"><path d="M1138.38 162.072s-4.05 11.77-6.26 10.668c0 0 21.3 18.4 40.1 0 0 0-3.3-5.885-8.1-10.668h-25.76z"/><path d="M1152.03 176.786c8.74 0 15.83-7.08 15.83-15.815s-7.1-15.816-15.83-15.816-15.82 7.08-15.82 15.816 7.1 15.815 15.82 15.815z"/></g><g class="O"><path d="M1165.45 187.453h-27.6l-2.6 11.047s-1.5 5.1.37 7.354 19.48 7.355 32.4.37c1.12-2.942 1.25-6.17.36-9.194-1.47-5.148-.36-.368-.36-.368l-2.58-9.208z" class="N"/><path d="M1165.82 187.453h-27.6l-2.57 11.047s-1.5 5.1.37 7.354 19.48 7.355 32.38.37a14.34 14.34 0 0 0 .37-9.194c-1.47-5.148-.37-.368-.37-.368l-2.57-9.208z" class="N"/></g><path d="M1165.6 187.453H1138l-2.58 11.047s-1.5 5.1.37 7.354 19.47 7.355 32.38.37a14.34 14.34 0 0 0 .37-9.194c-1.47-5.148-.37-.368-.37-.368l-2.57-9.208z" class="P"/><path d="M1146.47 178.3h11.05v9.038c0 .698-.14 1.4-.4 2.035a5.42 5.42 0 0 1-1.15 1.725c-.5.494-1.08.886-1.73 1.153a5.32 5.32 0 0 1-2.04.405h-.4a5.31 5.31 0 0 1-2.03-.405c-.65-.267-1.23-.66-1.73-1.153a5.42 5.42 0 0 1-1.15-1.725c-.27-.646-.4-1.337-.4-2.035V178.3z" class="N O"/><path d="M1146.47 177.9h11.05v9.037a5.31 5.31 0 0 1-1.56 3.761 5.33 5.33 0 0 1-3.77 1.557h-.4a5.34 5.34 0 0 1-3.76-1.557 5.31 5.31 0 0 1-1.56-3.761V177.9z" class="S"/><path d="M1146.5 179.48c3.56 1.33 7.47 1.34 11.04.03v-1.356h-11.04v1.325z" class="N O"/><path d="M1152.03 180.22c8.74 0 15.83-7.08 15.83-15.815s-7.1-15.815-15.83-15.815-15.82 7.08-15.82 15.815 7.1 15.815 15.82 15.815z" class="S"/><path d="M1136.9 158.395h30.17s-2.58-12.166-14-11.4-16.18 11.4-16.18 11.4z" class="Q"/><g class="S"><use xlink:href="#R"/><path d="M1167.45 166.5c.8 0 1.47-1.235 1.47-2.76s-.66-2.76-1.47-2.76-1.47 1.235-1.47 2.76.66 2.76 1.47 2.76z"/></g><path d="M1136.9 158.805h30.17s-2.58-12.165-14-11.4-16.18 11.4-16.18 11.4z" class="N O"/><g class="M"><path d="M1003.36 223.985a36.71 36.71 0 0 0-4.775-18.119c-3.13-5.526-7.638-10.148-13.086-13.416s-11.65-5.07-18-5.233-12.637 1.32-18.244 4.307-10.346 7.372-13.755 12.732-5.37 11.51-5.695 17.85a36.76 36.76 0 0 0 3.843 18.338c2.843 5.68 7.11 10.526 12.382 14.068l.024.164a12.61 12.61 0 0 0 4.174 2.655l.05-.163c1.738 1.477 8.976 3.84 17.316 3.823h.18c5.28 0 11.01-.93 16.054-3.656 0 0 .045-.098.115-.28a13.08 13.08 0 0 0 3.478-2.374l.06-.417c4.905-3.382 8.914-7.906 11.68-13.18s4.21-11.144 4.2-17.1h0z" fill="url(#I)" class="M"/></g><path d="M966.56 259.664c19.715 0 35.7-15.972 35.7-35.676s-15.986-35.676-35.7-35.676-35.696 15.973-35.696 35.676 15.982 35.676 35.696 35.676z" class="U"/><g class="P"><path d="M951.104 237.937s-8.507.695-6.26 16.183c1.165 1.118 2.54 1.993 4.048 2.576l4.785-16.184-2.573-2.575zm27.616 0s8.507.695 6.26 16.183c-1.166 1.118-2.542 1.993-4.048 2.576l-4.8-16.187 2.577-2.572z"/></g><use xlink:href="#S" class="Q"/><g fill="#4d8af0"><path d="M978.557 237.937h-27.603l-2.577 11.036s-1.513 5.1.37 7.355 19.475 7.354 32.385.368c1.125-2.94 1.254-6.167.37-9.187-1.47-5.148-.37-.368-.37-.368l-2.574-9.204z"/><path d="M978.926 237.937h-27.603l-2.577 11.036s-1.513 5.1.368 7.355 19.476 7.354 32.386.368c1.124-2.94 1.254-6.167.368-9.187-1.47-5.148-.368-.368-.368-.368l-2.574-9.204z"/></g><path d="M978.72 237.937h-27.618l-2.577 11.036s-1.513 5.1.37 7.355 19.476 7.354 32.385.368a14.38 14.38 0 0 0 .383-9.187c-1.47-5.148-.37-.368-.37-.368l-2.573-9.204z" class="P"/><path d="M959.583 228.78h11.042v9.038c0 1.4-.56 2.763-1.56 3.76s-2.35 1.558-3.762 1.558h-.4c-1.412 0-2.765-.56-3.763-1.558s-1.558-2.35-1.558-3.76v-9.038z" class="N O"/><path d="M959.583 228.375h11.042v9.037c0 1.4-.56 2.763-1.56 3.76a5.32 5.32 0 0 1-3.762 1.558h-.4a5.32 5.32 0 0 1-3.763-1.558c-.998-.997-1.558-2.35-1.558-3.76v-9.037z" class="W"/><path d="M959.604 229.963a15.89 15.89 0 0 0 11.042.03v-1.355h-11.042v1.324z" class="N O"/><path d="M965.143 230.703c8.74 0 15.825-7.08 15.825-15.815s-7.085-15.815-15.825-15.815-15.824 7.08-15.824 15.815 7.085 15.815 15.824 15.815z" class="W"/><path d="M950.015 209.275h30.177s-2.577-12.166-13.984-11.4-16.193 11.4-16.193 11.4z" class="N O"/><path d="M950.015 208.878h30.177s-2.577-12.165-13.984-11.4-16.193 11.4-16.193 11.4z" class="Q"/><g class="W"><path d="M949.646 216.974c.813 0 1.472-1.236 1.472-2.76s-.66-2.76-1.472-2.76-1.47 1.236-1.47 2.76.66 2.76 1.47 2.76zm30.9 0c.813 0 1.47-1.236 1.47-2.76s-.658-2.76-1.47-2.76-1.47 1.236-1.47 2.76.66 2.76 1.47 2.76z"/></g><path d="M952.36 200.8a5.61 5.61 0 0 1 2.035-3.014c.772-.535 1.693-.792 2.577-1.105a19.72 19.72 0 0 0 3.749-1.79c1.342-.827 2.6-1.82 4.08-2.367 2.543-.94 5.374-.43 8 .243a6.77 6.77 0 0 1 1.872.695 7.08 7.08 0 0 1 1.658 1.606l4.174 5.023a8.1 8.1 0 0 1 1.043 1.456 5 5 0 0 1 .473 1.644 4.3 4.3 0 0 1-.445 2.698c-.696 1.202-2.156 1.807-3.547 1.863s-2.758-.348-4.097-.74c-4.313-1.26-8.695-2.433-13.153-2.96a37.23 37.23 0 0 0-6.692-.216c-.695.046-1.627.37-2.052-.347-.386-.622.136-2.068.327-2.687z" class="Q"/><g class="M"><path d="M1027.17 334.326c0-6.35 1.65-12.592 4.78-18.118s7.64-10.15 13.1-13.417c5.44-3.268 11.64-5.07 18-5.233 6.35-.162 12.63 1.322 18.24 4.308s10.35 7.372 13.76 12.73c3.4 5.36 5.37 11.51 5.7 17.85a36.74 36.74 0 0 1-3.84 18.339 36.87 36.87 0 0 1-12.38 14.068l-.03.163c-1.2 1.152-2.62 2.055-4.17 2.655l-.05-.163c-1.74 1.477-8.98 3.84-17.32 3.824h-.18c-5.28 0-11-.932-16.05-3.657 0 0-.05-.097-.12-.278a13.02 13.02 0 0 1-3.47-2.374l-.06-.417a36.64 36.64 0 0 1-11.68-13.182c-2.77-5.275-4.2-11.144-4.2-17.1h0z" fill="url(#J)" class="M"/></g><path d="M1063.97 370.006c19.72 0 35.7-15.973 35.7-35.677s-15.98-35.676-35.7-35.676c-19.7 0-35.7 15.973-35.7 35.676s15.98 35.677 35.7 35.677z" class="U"/><g class="T"><path d="M1049.98 347.917s-8.5.695-6.26 16.183c1.16 1.118 2.54 1.993 4.05 2.576l4.78-16.184-2.57-2.575zm27.6 0s8.5.695 6.26 16.183a12.23 12.23 0 0 1-4.06 2.576l-4.78-16.184 2.58-2.575z"/></g><g class="Q"><path d="M1050.35 322.54l-1.6 4.11c-2.02 4.82.3 23.333 5.13 25.304 5.44 2.214 12.6 3.632 20 .925 6.46-2.353 8.45-23.424 3.88-28.558-.53-.6-1.1-1.2-1.68-1.783l-25.75.003z"/><path d="M1064 337.253a15.82 15.82 0 1 0-15.82-15.816 15.82 15.82 0 0 0 15.82 15.816z"/></g><g class="O"><use xlink:href="#T" class="N"/><path d="M1077.78 347.917h-27.6l-2.57 11.035s-1.52 5.1.37 7.355c1.88 2.246 19.47 7.355 32.38.37a14.34 14.34 0 0 0 .37-9.194c-1.47-5.148-.37-.368-.37-.368l-2.58-9.197z" class="N"/></g><path d="M1077.58 347.917h-27.6l-2.58 11.035s-1.5 5.1.37 7.355 19.48 7.355 32.38.37a14.34 14.34 0 0 0 .37-9.194c-1.47-5.148-.37-.368-.37-.368l-2.57-9.197z" class="P"/><path d="M1058.44 338.765h11.04v9.037a5.31 5.31 0 0 1-1.56 3.76 5.32 5.32 0 0 1-3.76 1.558h-.4a5.32 5.32 0 0 1-3.76-1.558 5.31 5.31 0 0 1-1.56-3.76v-9.037z" class="N O"/><path d="M1058.44 338.354h11.04v9.038a5.31 5.31 0 0 1-1.56 3.76 5.32 5.32 0 0 1-3.76 1.558h-.4a5.32 5.32 0 0 1-3.76-1.558 5.31 5.31 0 0 1-1.56-3.76v-9.038z" class="T"/><path d="M1058.46 339.943a15.91 15.91 0 0 0 11.05.03v-1.355h-11.05v1.324z" class="N O"/><path d="M1064 340.683a15.82 15.82 0 1 0-15.82-15.815 15.82 15.82 0 0 0 15.82 15.815z" class="T"/><path d="M1048.87 318.862h30.18s-2.58-12.166-14-11.4c-11.4.765-16.2 11.4-16.2 11.4z" class="Q"/><g class="T"><path d="M1048.5 326.954c.82 0 1.47-1.236 1.47-2.76s-.65-2.76-1.47-2.76c-.8 0-1.47 1.236-1.47 2.76s.66 2.76 1.47 2.76zm30.92 0c.8 0 1.47-1.236 1.47-2.76s-.66-2.76-1.47-2.76-1.47 1.236-1.47 2.76.66 2.76 1.47 2.76z"/></g><path d="M1048.87 319.27h30.18s-2.58-12.166-14-11.4c-11.4.764-16.2 11.4-16.2 11.4z" class="N O"/><g stroke="#0083ff"><path d="M1150.74 219.574v133.06h-35.7m-149.382-84.38v84.38h51.952" stroke-dasharray="12 12" stroke-miterlimit="10" stroke-width="2"/></g><g class="M"><path d="M964.764 280.66c7.015 0 12.702-5.684 12.702-12.694a12.702 12.702 0 1 0-12.702 12.694z" fill="url(#K)" class="M"/></g><path d="M964.764 279.9c6.602 0 11.954-5.348 11.954-11.946s-5.352-11.947-11.954-11.947-11.953 5.35-11.953 11.947 5.352 11.946 11.953 11.946z" class="X"/><path d="M959.576 266.373l4.483 4.105 6.347-9.333 2.243 1.867-8.6 11.2-6.35-7.1 1.868-.747z" class="R"/><g class="M"><path d="M1152.74 226.21c7 0 12.7-5.683 12.7-12.694s-5.7-12.694-12.7-12.694c-7.02 0-12.7 5.684-12.7 12.694s5.68 12.694 12.7 12.694z" fill="url(#L)" class="M"/></g><path d="M1152.74 225.462a11.95 11.95 0 0 0 11.95-11.947 11.95 11.95 0 0 0-11.95-11.946 11.96 11.96 0 0 0-11.96 11.946 11.96 11.96 0 0 0 11.96 11.947z" class="X"/><path d="M1147.55 211.923l4.48 4.105 6.35-9.332 2.24 1.866-8.6 11.2-6.35-7.094 1.87-.744z" class="R"/><g class="M"><path d="M1065.06 391c7.02 0 12.7-5.683 12.7-12.694s-5.7-12.694-12.7-12.694c-7 0-12.7 5.684-12.7 12.694s5.7 12.694 12.7 12.694z" fill="url(#M)" class="M"/></g><path d="M1065.07 390.253a11.95 11.95 0 0 0 11.95-11.947 11.95 11.95 0 0 0-11.95-11.946c-6.6 0-11.96 5.348-11.96 11.946s5.35 11.947 11.96 11.947z" class="X"/><path d="M1059.88 376.714l4.48 4.105 6.35-9.333 2.24 1.867-8.6 11.2-6.35-7.1 1.87-.748z" class="R"/></g><defs><linearGradient id="A" x1="116.203" y1="600.811" x2="238.685" y2="307.635" xlink:href="#U"><stop stop-color="gray" stop-opacity=".25"/><stop offset=".54" stop-color="gray" stop-opacity=".12"/><stop offset="1" stop-color="gray" stop-opacity=".1"/></linearGradient><linearGradient id="B" x1="46279.4" y1="59866.3" x2="46279.4" y2="42761.3" xlink:href="#U"><stop stop-color="gray" stop-opacity=".25"/><stop offset=".54" stop-color="gray" stop-opacity=".12"/><stop offset="1" stop-color="gray" stop-opacity=".1"/></linearGradient><linearGradient id="C" x1="51893.3" y1="37273.3" x2="51893.3" y2="20161.4" xlink:href="#U"><stop stop-color="gray" stop-opacity=".25"/><stop offset=".54" stop-color="gray" stop-opacity=".12"/><stop offset="1" stop-color="gray" stop-opacity=".1"/></linearGradient><linearGradient id="D" x1="54922.7" y1="34747" x2="54922.7" y2="19876.1" xlink:href="#U"><stop stop-color="gray" stop-opacity=".25"/><stop offset=".54" stop-color="gray" stop-opacity=".12"/><stop offset="1" stop-color="gray" stop-opacity=".1"/></linearGradient><linearGradient id="E" x1="-481822" y1="56985.2" x2="-481822" y2="42114.3" xlink:href="#U"><stop stop-color="gray" stop-opacity=".25"/><stop offset=".54" stop-color="gray" stop-opacity=".12"/><stop offset="1" stop-color="gray" stop-opacity=".1"/></linearGradient><linearGradient id="F" x1="1067.83" y1="375.247" x2="1068.09" y2="176.682" xlink:href="#U"><stop stop-color="gray" stop-opacity=".25"/><stop offset=".54" stop-color="gray" stop-opacity=".12"/><stop offset="1" stop-color="gray" stop-opacity=".1"/></linearGradient><linearGradient id="G" x1="938.224" y1="276.726" x2="1197.22" y2="276.364" xlink:href="#U"><stop stop-opacity=".1"/><stop offset=".55" stop-opacity=".07"/><stop offset="1" stop-opacity=".02"/></linearGradient><linearGradient id="H" x1="62769" y1="21936.6" x2="62769" y2="6274.21" xlink:href="#U"><stop stop-color="gray" stop-opacity=".25"/><stop offset=".54" stop-color="gray" stop-opacity=".12"/><stop offset="1" stop-color="gray" stop-opacity=".1"/></linearGradient><linearGradient id="I" x1="23411.6" y1="32858.9" x2="23411.6" y2="17195.3" xlink:href="#U"><stop stop-color="gray" stop-opacity=".25"/><stop offset=".54" stop-color="gray" stop-opacity=".12"/><stop offset="1" stop-color="gray" stop-opacity=".1"/></linearGradient><linearGradient id="J" x1="40276.4" y1="56393.2" x2="40276.4" y2="40729.5" xlink:href="#U"><stop stop-color="gray" stop-opacity=".25"/><stop offset=".54" stop-color="gray" stop-opacity=".12"/><stop offset="1" stop-color="gray" stop-opacity=".1"/></linearGradient><linearGradient id="K" x1="4440.78" y1="10821.1" x2="4440.78" y2="8967.06" xlink:href="#U"><stop stop-color="gray" stop-opacity=".25"/><stop offset=".54" stop-color="gray" stop-opacity=".12"/><stop offset="1" stop-color="gray" stop-opacity=".1"/></linearGradient><linearGradient id="L" x1="18358.3" y1="6789.7" x2="18358.3" y2="4935.64" xlink:href="#U"><stop stop-color="gray" stop-opacity=".25"/><stop offset=".54" stop-color="gray" stop-opacity=".12"/><stop offset="1" stop-color="gray" stop-opacity=".1"/></linearGradient><linearGradient id="M" x1="11867" y1="18990.8" x2="11867" y2="17136.7" xlink:href="#U"><stop stop-color="gray" stop-opacity=".25"/><stop offset=".54" stop-color="gray" stop-opacity=".12"/><stop offset="1" stop-color="gray" stop-opacity=".1"/></linearGradient><clipPath id="N"><path d="M9 294h346v318H9z" class="R"/></clipPath><clipPath id="O"><path d="M917 136h304v255H917z" class="R"/></clipPath><path id="P" d="M153.204 518.2c10.283 0 18.62-8.28 18.62-18.493s-8.336-18.493-18.62-18.493-18.618 8.28-18.618 18.493 8.336 18.493 18.618 18.493z"/><path id="Q" d="M204.278 403.503c10.282 0 18.618-8.28 18.618-18.492s-8.336-18.493-18.618-18.493-18.62 8.28-18.62 18.493 8.336 18.492 18.62 18.492z"/><path id="R" d="M1136.54 166.5c.8 0 1.47-1.235 1.47-2.76s-.66-2.76-1.47-2.76-1.47 1.235-1.47 2.76.66 2.76 1.47 2.76z"/><path id="S" d="M965.143 227.27c8.74 0 15.825-7.08 15.825-15.815s-7.085-15.815-15.825-15.815-15.824 7.08-15.824 15.815 7.085 15.815 15.824 15.815z"/><path id="T" d="M1077.4 347.917h-27.6l-2.57 11.035s-1.52 5.1.37 7.355c1.88 2.246 19.47 7.355 32.38.37a14.34 14.34 0 0 0 .37-9.194c-1.47-5.148-.37-.368-.37-.368l-2.58-9.197z"/><linearGradient id="U" gradientUnits="userSpaceOnUse"/><path id="V" d="M135.4 496.706h35.502s-3.03-14.238-16.45-13.33-19.052 13.33-19.052 13.33z"/></defs></svg>