<svg width="641" height="720" viewBox="0 0 641 720" fill="none" xmlns="http://www.w3.org/2000/svg">
<g clip-path="url(#clip0)">
<path d="M457.311 238.357C457.311 238.357 490.121 390.938 266.553 429.084C42.9839 467.229 196.353 271.925 75.7943 238.357C-44.7647 204.789 119.287 -5.77397 266.553 47.6297C413.818 101.033 457.311 238.357 457.311 238.357Z" fill="#0083FF"/>
<path d="M301.761 237H262.033C258.012 237 254.753 240.259 254.753 244.28V255.096C254.753 259.117 258.012 262.376 262.033 262.376H301.761C305.781 262.376 309.041 259.117 309.041 255.096V244.28C309.041 240.259 305.781 237 301.761 237Z" fill="#8FC9FF"/>
<g filter="url(#filter0_d)">
<path d="M312.872 313.752H207.896V294.358L275.532 197.392H209.73V172.692H311.038V191.989L243.499 289.052H312.872V313.752Z" fill="white"/>
</g>
<path fill-rule="evenodd" clip-rule="evenodd" d="M441.953 265.95C445.135 259.257 446.488 251.738 443.958 244.397C436.669 223.244 407.93 236.028 405.008 248.472C402.086 260.917 410.175 288.331 418.241 288.254C421.457 288.223 427.357 284.606 432.827 278.927L436.494 308.991L460.671 302.513L441.953 265.95Z" fill="#D4A181"/>
<path fill-rule="evenodd" clip-rule="evenodd" d="M433.18 266.676C437.72 271.627 443.027 274.85 447.17 273.74C455.038 271.632 457.814 259.613 454.783 248.303C454.677 247.905 454.563 247.513 454.442 247.125C464.296 250.607 473.727 260.146 484.74 257.195C499.723 253.18 497.576 221.365 476.642 226.974C462.406 230.789 455.96 234.741 450.747 239.427C448.658 236.391 446.087 234.056 443.339 232.68C442.644 232.222 441.672 231.866 440.473 231.616C439.733 231.436 438.987 231.327 438.243 231.295C434.245 230.933 428.72 231.402 422.776 232.774C421.666 233.03 420.584 233.308 419.534 233.605C418.03 228.061 412.322 224.774 406.77 226.262C401.206 227.753 397.904 233.472 399.395 239.035C400.837 244.415 406.233 247.68 411.618 246.541C414.907 246.664 418.994 246.307 423.4 245.437C423.403 247.13 423.655 248.987 424.199 251.015C424.679 252.806 425.386 254.653 426.267 256.484C426.906 255.117 427.966 254.053 429.24 253.711C432.804 252.757 436.07 255.024 436.904 258.136C437.962 262.086 436.448 265.555 433.18 266.676Z" fill="#191847"/>
<path fill-rule="evenodd" clip-rule="evenodd" d="M491.509 394.707L453.307 526.348L435.339 625.186H417.304L435.307 394.707H491.509Z" fill="#BA8B72"/>
<path fill-rule="evenodd" clip-rule="evenodd" d="M508.678 394.707C506.012 463.094 507.063 500.394 507.66 506.607C508.257 512.82 511.643 554.433 534.723 627.272H515.965C485.4 557.395 474.73 515.783 471.225 506.607C467.719 497.431 457.365 460.131 442.25 394.707H508.678Z" fill="#D4A181"/>
<path fill-rule="evenodd" clip-rule="evenodd" d="M492.329 394.707C482.392 440.005 465.206 512.312 440.769 611.629H414.391C412.443 509.69 420.731 442.597 435.084 394.707H492.329Z" fill="#69A1AC"/>
<path fill-rule="evenodd" clip-rule="evenodd" d="M508.811 394.707C506.2 463.094 512.966 530.468 533.923 612.694H505.779C475.158 543.859 453.211 476.817 438.212 394.707H508.811Z" fill="#89C5CC"/>
<path fill-rule="evenodd" clip-rule="evenodd" d="M537.397 640.83L536.362 624.144C530.302 625.916 522.712 625.221 513.592 622.058C503.786 629.004 491.441 633.747 476.557 636.287L476.557 636.287C475.422 636.481 474.658 637.559 474.852 638.694C474.864 638.768 474.881 638.84 474.901 638.912L476.332 643.959H513.592H535.327L537.397 640.83Z" fill="#191847"/>
<path fill-rule="evenodd" clip-rule="evenodd" d="M439.365 640.83L438.33 624.144C432.27 625.916 424.68 625.221 415.56 622.058C405.753 629.004 393.408 633.747 378.525 636.287L378.525 636.287C377.389 636.481 376.626 637.559 376.82 638.694C376.832 638.768 376.849 638.84 376.869 638.912L378.3 643.959H415.56H437.295L439.365 640.83Z" fill="#191847"/>
<path fill-rule="evenodd" clip-rule="evenodd" d="M416.889 336.079L377.797 322.84C370.628 316.845 363.823 312.408 357.382 309.528C355.495 309.104 352.342 309.201 356.117 313.798C359.892 318.394 363.656 323.398 362.469 325.229C361.281 327.059 357.241 325.507 355.954 328.428C355.096 330.374 361.822 332.025 376.131 333.38L406.216 352.529L416.889 336.079ZM363.961 362.397L346.785 356.556C343.114 348.583 339.746 344.839 336.681 345.326C334.141 344.647 340.091 354.491 335.48 354.359C330.868 354.228 318.583 348.065 317.001 350.035C314.66 352.95 318.442 359.965 322.004 363.159C328.662 369.127 333.581 370.702 345.253 371.842C351.356 372.439 358.218 374.581 365.84 378.268L363.961 362.397Z" fill="#D4A181"/>
<path fill-rule="evenodd" clip-rule="evenodd" d="M433.483 328.668C420.973 330.738 403.857 331.037 384.102 322.892L379.869 339.682C394.268 349.683 413.262 356.637 428.254 353.557C440.069 351.13 443.605 335.698 433.483 328.668Z" fill="#2026A2"/>
<path fill-rule="evenodd" clip-rule="evenodd" d="M421.07 356.586C408.397 362.229 385.48 362.25 352.319 356.649C347.403 374.025 345.838 386.071 347.624 392.787C376.857 402.049 400.898 404.238 419.872 401.317C421.249 412.638 424.496 423.069 430.801 432.011C443.763 450.395 495.693 422.096 514.899 422.477C519.866 382.679 494.687 371.301 490.41 347.15C485.726 320.702 457.308 283.733 454.183 284.284L425.685 289.309C427.675 309.787 423.687 333.446 421.07 356.586Z" fill="#1F28CF"/>
</g>
<defs>
<filter id="filter0_d" x="207.896" y="152.692" width="154.975" height="181.06" filterUnits="userSpaceOnUse" color-interpolation-filters="sRGB">
<feFlood flood-opacity="0" result="BackgroundImageFix"/>
<feColorMatrix in="SourceAlpha" type="matrix" values="0 0 0 0 0 0 0 0 0 0 0 0 0 0 0 0 0 0 127 0"/>
<feOffset dx="30"/>
<feGaussianBlur stdDeviation="10"/>
<feColorMatrix type="matrix" values="0 0 0 0 0 0 0 0 0 0 0 0 0 0 0 0 0 0 0.1 0"/>
<feBlend mode="normal" in2="BackgroundImageFix" result="effect1_dropShadow"/>
<feBlend mode="normal" in="SourceGraphic" in2="effect1_dropShadow" result="shape"/>
</filter>
<clipPath id="clip0">
<rect width="641" height="720" fill="white"/>
</clipPath>
</defs>
</svg>
