<svg width="1280" height="720" viewBox="0 0 1280 720" fill="none" xmlns="http://www.w3.org/2000/svg">
<g clip-path="url(#clip0)">
<path fill-rule="evenodd" clip-rule="evenodd" d="M246.5 209.673C269.972 209.673 289 199.6 289 187.173C289 174.747 269.972 164.673 246.5 164.673C223.028 164.673 204 174.747 204 187.173C204 199.6 223.028 209.673 246.5 209.673Z" fill="#F2F2F2"/>
<path fill-rule="evenodd" clip-rule="evenodd" d="M296 202.673C296 175.059 273.838 152.673 246.5 152.673C219.162 152.673 197 175.059 197 202.673" fill="#DDE3E9"/>
<rect x="244" width="5" height="160" fill="#DDE3E9"/>
<g opacity="0.7">
<path fill-rule="evenodd" clip-rule="evenodd" d="M324 159C341.545 159 355.768 150.87 355.768 140.842C355.768 130.814 341.545 122.684 324 122.684C306.455 122.684 292.232 130.814 292.232 140.842C292.232 150.87 306.455 159 324 159Z" fill="#F2F2F2"/>
<path fill-rule="evenodd" clip-rule="evenodd" d="M361 153.351C361 131.066 344.435 113 324 113C303.565 113 287 131.066 287 153.351" fill="#DDE3E9"/>
<rect x="322" width="5" height="136" fill="#DDE3E9"/>
</g>
<path fill-rule="evenodd" clip-rule="evenodd" d="M235.258 484.173C238.123 483.823 241.18 483.947 243.844 485.077C249.509 487.482 251.119 494.174 251.041 499.614C250.957 505.468 249.714 511.863 254.165 516.58C256.211 518.748 258.756 520.408 260.765 522.617C262.912 524.977 264.597 527.677 265.844 530.577C268.134 535.903 269.258 542.167 267.164 547.754C265.32 552.674 260.681 557.114 261.683 562.708C262.729 568.543 268.612 573.004 272.29 577.351C276.453 582.269 280.286 588.556 280.916 595.006C281.519 601.188 278.828 607.44 274.699 612.113C266.448 621.451 254.045 626.028 241.54 626C236.23 625.988 230.219 625.748 225.637 622.895C224.22 622.013 223.473 621.023 222.631 619.648C221.877 618.414 220.88 617.612 219.725 616.739C217.19 614.822 215.359 612.239 214.19 609.347C209.652 598.114 213.279 584.218 219.631 574.243C221.136 571.88 222.369 569.605 221.637 566.789C220.874 563.848 218.999 561.196 217.34 558.669C215.701 556.17 213.83 553.787 212.549 551.087C211.207 548.257 210.829 545.294 211.066 542.198C211.512 536.381 214.023 531.013 217.578 526.336C221.002 521.83 225.022 517.518 225.031 511.615C225.041 505.357 220.858 499.791 222.64 493.429C223.378 490.795 224.86 488.092 227.249 486.513C229.539 484.998 232.564 484.502 235.258 484.173Z" fill="#DDE3E9"/>
<path fill-rule="evenodd" clip-rule="evenodd" d="M233.386 494.176C233.44 493.336 234.437 492.832 235.222 493.051C236.254 493.34 236.235 494.305 236.207 495.165C236.124 497.808 236.506 500.377 237.142 502.942C238.462 508.274 240.903 513.186 242.836 518.308C244.768 523.425 245.675 528.709 244.542 534.124C243.473 539.23 241.795 544.203 240.701 549.315C239.738 553.821 238.712 558.573 240.18 563.067C241.592 567.393 244.714 570.916 246.962 574.825C251.617 582.918 253.681 591.896 253.957 601.135C254.085 605.425 253.97 609.755 252.975 613.963C252.402 616.386 251.632 619.66 249.556 621.333C248.599 622.105 246.961 622.371 246.155 621.229C245.399 620.158 246.062 618.499 246.303 617.357C247.343 612.413 247.552 607.361 247.303 602.342C247.062 597.48 246.487 592.626 244.957 587.982C243.537 583.673 241.379 579.802 238.84 576.032C236.252 572.191 233.562 568.341 232.493 563.789C231.406 559.166 232.289 554.462 233.469 549.927C234.717 545.131 236.352 540.472 238.042 535.805C239.689 531.258 240.272 526.955 239.363 522.196C237.567 512.794 232.76 503.968 233.386 494.176Z" fill="#C5CFD6"/>
<path fill-rule="evenodd" clip-rule="evenodd" d="M310.892 495.582C314.437 496.659 317.958 498.395 320.485 501.118C325.858 506.909 324.209 515.661 321.243 522.053C318.05 528.933 313.212 535.849 315.94 543.743C317.193 547.372 319.301 550.659 320.49 554.316C321.761 558.224 322.309 562.294 322.239 566.372C322.11 573.862 320.118 581.855 314.708 587.373C309.945 592.232 302.158 595.07 300.377 602.206C298.518 609.651 303.061 617.988 305.078 625.041C307.36 633.024 308.533 642.453 305.862 650.409C303.303 658.034 296.842 664.028 289.528 667.406C274.915 674.156 257.949 673.117 243.296 666.578C237.075 663.801 230.151 660.391 226.285 654.633C225.09 652.853 224.736 651.294 224.476 649.23C224.243 647.378 223.497 645.911 222.605 644.278C220.644 640.692 219.862 636.684 220.02 632.656C220.634 617.011 232.234 602.464 244.956 593.972C247.971 591.96 250.618 589.912 251.249 586.2C251.909 582.325 251.111 578.213 250.501 574.361C249.899 570.554 248.964 566.763 248.889 562.902C248.811 558.858 249.933 555.157 251.848 551.619C255.445 544.972 261.227 539.93 267.87 536.247C274.267 532.7 281.262 529.692 284.393 522.715C287.712 515.32 285.747 506.561 291.2 499.964C293.458 497.233 296.625 494.807 300.262 494.182C303.749 493.583 307.558 494.57 310.892 495.582Z" fill="#DDE3E9"/>
<path fill-rule="evenodd" clip-rule="evenodd" d="M303.651 507.811C304.154 506.844 305.584 506.769 306.387 507.44C307.443 508.324 306.914 509.456 306.432 510.46C304.95 513.547 304.052 516.789 303.452 520.159C302.204 527.166 302.485 534.262 302.063 541.341C301.642 548.414 299.935 555.147 295.774 560.965C291.85 566.452 287.283 571.462 283.327 576.943C279.841 581.773 276.153 586.863 275.516 592.954C274.901 598.817 276.707 604.626 277.288 610.434C278.492 622.457 276.204 634.171 271.688 645.257C269.591 650.405 267.189 655.472 263.821 659.933C261.882 662.503 259.267 665.977 255.963 666.869C254.44 667.281 252.385 666.739 252.042 664.964C251.718 663.298 253.363 661.682 254.242 660.455C258.047 655.146 260.938 649.273 263.275 643.198C265.54 637.314 267.41 631.265 268.053 624.963C268.649 619.116 268.153 613.401 267.158 607.606C266.144 601.701 265.015 595.732 266.149 589.781C267.3 583.736 270.795 578.628 274.55 573.876C278.521 568.85 282.873 564.19 287.293 559.549C291.6 555.027 294.536 550.238 295.966 544.126C298.79 532.049 297.791 519.078 303.651 507.811Z" fill="#C5CFD6"/>
<path fill-rule="evenodd" clip-rule="evenodd" d="M201.306 540C207.2 540 212.382 543.124 215.953 547.558C220.133 552.748 220.977 559.086 222.675 565.272C223.519 568.35 224.972 571.406 227.517 573.498C229.833 575.4 232.772 575.78 235.543 576.71C241.082 578.567 245.555 583.041 247.321 588.499C249.476 595.158 247.193 601.873 247.586 608.622C247.947 614.819 254.058 618.685 258.974 621.656C263.821 624.586 268.189 627.328 269.649 633.035C271.197 639.088 271.716 645.844 269.572 651.823C266.002 661.779 255.552 666.163 245.456 666.842C236.293 667.459 224.772 666.491 217.891 659.84C213.773 655.86 212.282 650.293 212.467 644.755C212.582 641.311 213.264 637.899 214.146 634.571C214.771 632.213 215.616 629.864 215.856 627.427C216.496 620.942 210.503 619.697 205.401 617.916C198.918 615.654 194.38 611.38 191.224 605.425C188.285 599.881 187.052 593.658 188.814 587.554C189.714 584.437 191.346 581.61 193.559 579.205C194.533 578.146 195.907 577.263 196.786 576.151C197.607 575.112 197.428 573.766 197.145 572.55C195.837 566.931 191.762 562.278 190.305 556.668C188.989 551.605 189.767 545.304 194.395 542.038C196.395 540.627 198.862 540.016 201.306 540Z" fill="#C5CFD6"/>
<path fill-rule="evenodd" clip-rule="evenodd" d="M209.338 554.641C215.585 561.296 217.283 570.325 217.781 579.076C218.061 583.983 217.77 589.159 219.212 593.919C220.445 597.993 223.337 601.107 226.318 604.051C232.319 609.975 239.011 615.999 240.766 624.574C241.796 629.606 241.101 634.804 242.524 639.78C243.817 644.304 246.096 648.748 248.867 652.568C251.098 655.645 254.004 658 256.443 660.867C257.187 661.743 258.253 663.031 257.946 664.267C257.586 665.714 255.743 666.172 254.435 665.945C251.386 665.415 248.819 662.503 246.825 660.386C243.91 657.291 241.432 653.962 239.419 650.227C237.183 646.08 235.383 641.679 234.614 637.026C233.816 632.199 234.213 627.168 232.391 622.535C229.324 614.74 221.886 610.14 216.508 604.064C209.808 596.494 210.807 587.072 211.493 577.759C211.87 572.641 212.245 566.862 209.659 562.189C208.672 560.406 206.471 558.743 206.047 556.715C205.658 554.858 207.78 552.981 209.338 554.641Z" fill="#AFB9C5"/>
<path fill-rule="evenodd" clip-rule="evenodd" d="M216 664C216 702.058 222.211 722 255 722C287.789 722 294 702.058 294 664H216Z" fill="#89C5CC"/>
<path d="M1023 196.236L1061.42 174.27C1063.88 172.863 1066.91 172.863 1069.37 174.27L1161.94 227.192C1166.92 230.041 1170 235.342 1170 241.082V566" stroke="#CBCBCB" stroke-width="8"/>
<rect x="1140" y="565" width="59" height="7" rx="3" fill="#AFB9C5"/>
<path d="M987.498 185.335C1000.39 172.447 1021.28 172.447 1034.17 185.335V185.335C1047.05 198.222 1047.05 219.116 1034.17 232.004L1014.37 251.803L967.699 205.134L987.498 185.335Z" fill="#C5CFD6"/>
<path fill-rule="evenodd" clip-rule="evenodd" d="M987.228 232.527C1000.11 245.414 1012.62 253.804 1015.16 251.265C1017.7 248.727 1009.31 236.222 996.42 223.335C983.533 210.447 971.028 202.058 968.489 204.596C965.951 207.135 974.34 219.64 987.228 232.527Z" fill="#F2F2F2"/>
<path fill-rule="evenodd" clip-rule="evenodd" d="M140.102 288.023C136.44 280.266 134.784 271.603 137.424 263.236C145.031 239.129 177.08 254.484 180.577 268.838C184.073 283.192 175.716 314.467 166.797 314.187C163.24 314.076 156.639 309.784 150.469 303.135L147.058 337.557L120.188 329.548L140.102 288.023Z" fill="#D4A181"/>
<path fill-rule="evenodd" clip-rule="evenodd" d="M150.382 289.022C145.512 294.591 139.781 298.178 135.256 296.849C126.661 294.323 123.467 280.587 126.602 267.75C126.713 267.299 126.831 266.853 126.956 266.414C116.281 270.224 106.153 280.943 94.1226 277.408C77.756 272.598 79.6348 236.387 102.501 243.107C118.052 247.677 125.126 252.281 130.868 257.702C133.098 254.276 135.863 251.656 138.834 250.133C139.583 249.622 140.637 249.232 141.938 248.966C142.742 248.772 143.551 248.66 144.361 248.635C148.708 248.285 154.728 248.907 161.217 250.564C162.429 250.873 163.612 251.207 164.759 251.561C166.316 245.269 172.481 241.615 178.547 243.397C184.624 245.183 188.3 251.75 186.758 258.065C185.266 264.172 179.44 267.806 173.561 266.423C169.983 266.512 165.53 266.04 160.722 264.98C160.743 266.909 160.494 269.019 159.932 271.322C159.435 273.355 158.693 275.448 157.76 277.52C157.044 275.952 155.875 274.723 154.483 274.314C150.591 273.17 147.068 275.701 146.205 279.234C145.11 283.718 146.809 287.693 150.382 289.022Z" fill="#191847"/>
<path fill-rule="evenodd" clip-rule="evenodd" d="M86.7532 436.886L128.172 588.822L147.654 702.899H167.207L147.689 436.886H86.7532Z" fill="#BA8B72"/>
<path fill-rule="evenodd" clip-rule="evenodd" d="M68.1388 436.886C71.0288 515.816 69.889 558.867 69.2422 566.038C68.5954 573.209 64.9232 621.237 39.9001 705.306H60.2376C93.3765 624.656 104.945 576.628 108.746 566.038C112.547 555.448 123.772 512.397 140.161 436.886H68.1388Z" fill="#D4A181"/>
<path fill-rule="evenodd" clip-rule="evenodd" d="M85.8638 436.886C96.6375 489.168 115.272 572.623 141.766 687.251H170.365C172.478 569.596 163.492 492.16 147.93 436.886H85.8638Z" fill="#69A1AC"/>
<path fill-rule="evenodd" clip-rule="evenodd" d="M67.9944 436.886C70.8248 515.816 63.4895 593.577 40.7673 688.48H71.2812C104.481 609.033 128.276 531.656 144.539 436.886H67.9944Z" fill="#89C5CC"/>
<path fill-rule="evenodd" clip-rule="evenodd" d="M37.0015 720.954L38.1236 701.695C44.6936 703.741 52.9227 702.938 62.8109 699.288C73.4431 707.305 86.8276 712.779 102.964 715.711L102.964 715.711C104.196 715.934 105.023 717.178 104.813 718.489C104.8 718.574 104.782 718.658 104.76 718.74L103.208 724.565H62.8109H39.2458L37.0015 720.954Z" fill="#191847"/>
<path fill-rule="evenodd" clip-rule="evenodd" d="M143.289 720.954L144.411 701.695C150.981 703.741 159.21 702.938 169.098 699.288C179.73 707.305 193.115 712.779 209.252 715.711L209.252 715.711C210.483 715.934 211.311 717.178 211.101 718.489C211.087 718.574 211.069 718.658 211.047 718.74L209.496 724.565H169.098H145.533L143.289 720.954Z" fill="#191847"/>
<path fill-rule="evenodd" clip-rule="evenodd" d="M167.342 368.706L209.772 354.046C217.516 347.284 224.879 342.296 231.862 339.083C233.913 338.621 237.348 338.769 233.286 343.974C229.224 349.179 225.178 354.851 226.491 356.955C227.804 359.06 232.187 357.335 233.619 360.685C234.574 362.919 227.268 364.725 211.7 366.104L179.14 387.62L167.342 368.706ZM225.262 399.387L243.905 392.919C247.818 383.856 251.446 379.62 254.789 380.212C257.548 379.467 251.172 390.639 256.193 390.543C261.214 390.447 274.527 383.554 276.271 385.822C278.852 389.179 274.807 397.146 270.962 400.751C263.775 407.49 258.435 409.231 245.736 410.396C239.096 411.005 231.646 413.37 223.385 417.492L225.262 399.387Z" fill="#D4A181"/>
<path fill-rule="evenodd" clip-rule="evenodd" d="M149.43 360.592C163.084 363.084 181.739 363.623 203.179 354.623L207.971 373.701C192.387 384.867 171.764 392.527 155.394 388.861C142.493 385.972 138.475 368.441 149.43 360.592Z" fill="#2026A2"/>
<path fill-rule="evenodd" clip-rule="evenodd" d="M163.055 393.027C176.943 399.639 201.947 399.934 238.069 393.911C243.619 413.868 245.455 427.682 243.578 435.352C211.781 445.614 185.573 447.837 164.839 444.267C163.458 457.216 160.027 469.123 153.243 479.29C139.296 500.19 82.333 467.169 61.382 467.379C55.5369 421.743 82.8887 409.009 87.2974 381.402C92.1254 351.169 122.737 309.167 126.153 309.835L157.3 315.926C155.348 339.354 159.952 366.496 163.055 393.027Z" fill="#1F28CF"/>
<path fill-rule="evenodd" clip-rule="evenodd" d="M1134.58 432.118C1132.74 457.069 1014.2 530.526 1013.51 532.587C1013.2 533.503 1025.5 562.459 1050.41 619.455L1040.05 623.456C1001.84 563.093 983.725 529.695 985.687 523.263C988.497 514.055 1019.16 483.761 1077.66 432.384L1134.58 432.118Z" fill="#B28B67"/>
<path fill-rule="evenodd" clip-rule="evenodd" d="M1047.68 606.583L1030.76 612.702C995.089 572.713 981.106 539.719 983.655 522.908C985.355 511.7 1015.91 481.458 1075.31 432.179L1135.8 432.179C1133.73 489.961 1023.86 532.807 1022.39 535.269C1020.92 537.732 1035.38 561.847 1047.68 606.583Z" fill="#2F3676"/>
<path fill-rule="evenodd" clip-rule="evenodd" d="M1054.24 617.552C1056.36 620.022 1057.67 621.967 1058.19 623.386C1058.82 625.113 1059.45 627.736 1060.09 631.258C1058.08 631.985 1040.06 638.523 1006.01 650.871C1002.91 646.742 1002.81 643.943 1005.7 642.475C1008.6 641.007 1010.99 639.761 1012.88 638.736L1033.93 618.431C1034.33 618.041 1034.98 618.052 1035.37 618.457C1035.38 618.464 1035.39 618.471 1035.39 618.478L1038.44 621.805C1041.72 622.095 1044.23 621.921 1045.98 621.286C1047.41 620.769 1049.16 619.482 1051.25 617.424L1051.25 617.424C1052.06 616.634 1053.35 616.643 1054.14 617.444C1054.17 617.479 1054.21 617.515 1054.24 617.552Z" fill="#E4E4E4"/>
<path fill-rule="evenodd" clip-rule="evenodd" d="M1120.95 432.118L1173.76 558.066L1225.66 664.543H1213.42L1079.45 432.118H1120.95Z" fill="#997659"/>
<path fill-rule="evenodd" clip-rule="evenodd" d="M1226.4 659.728C1227.54 662.767 1228.11 665.042 1228.11 666.551C1228.11 668.386 1227.8 671.064 1227.19 674.585C1225.05 674.585 1205.87 674.585 1169.63 674.585C1168.13 669.654 1169 666.991 1172.22 666.598C1175.44 666.205 1178.12 665.85 1180.25 665.533L1207 653.638C1207.52 653.409 1208.12 653.64 1208.35 654.153C1208.36 654.162 1208.36 654.171 1208.36 654.18L1210.08 658.34C1213.07 659.728 1215.49 660.423 1217.36 660.423C1218.87 660.423 1220.96 659.812 1223.63 658.591L1223.63 658.591C1224.66 658.123 1225.87 658.572 1226.34 659.593C1226.36 659.638 1226.38 659.682 1226.4 659.728Z" fill="#E4E4E4"/>
<path fill-rule="evenodd" clip-rule="evenodd" d="M1220.98 642.424L1193.77 647.493C1172.73 616.765 1084.69 490.771 1075.03 432.118H1135.61C1167.84 474.518 1200.92 611.188 1220.98 642.424Z" fill="#5C63AB"/>
<path fill-rule="evenodd" clip-rule="evenodd" d="M1102.05 309.569C1105.28 303.141 1106.74 295.885 1104.4 288.739C1097.67 268.151 1069.35 280.074 1066.27 292.073C1063.19 304.072 1070.59 330.733 1078.47 330.785C1081.62 330.806 1087.45 327.397 1092.89 321.986L1095.93 351.142L1119.67 345.251L1102.05 309.569Z" fill="#B28B67"/>
<path fill-rule="evenodd" clip-rule="evenodd" d="M1065.22 297.384C1065.12 295.954 1065.31 294.288 1065.45 292.876C1065.63 291.055 1066.16 289.322 1066.8 287.654C1068 284.512 1069.65 281.537 1071.63 278.915C1075.25 274.125 1080.5 270.578 1086.35 269.853C1089.31 269.487 1092.36 269.878 1095.19 271.092C1097.73 272.188 1100.39 274.073 1103.21 273.557C1106.27 272.995 1108.38 269.674 1110.39 267.446C1112.66 264.934 1115.23 262.876 1118.29 261.565C1123.41 259.369 1128.87 259.908 1133.64 263.33C1138.71 266.972 1143.25 273.031 1142.21 279.784C1142.02 281.039 1141.64 282.15 1140.96 283.163C1140.33 284.093 1139.29 285.174 1139.25 286.419C1139.21 287.743 1140.65 289.08 1141.34 290.095C1142.32 291.551 1143.21 293.111 1143.48 294.891C1143.91 297.814 1142.78 300.988 1141.34 303.339C1139.87 305.732 1137.75 307.422 1135.31 308.562C1133.69 309.324 1131.99 309.943 1130.22 310.248C1129.34 310.4 1128.52 310.352 1127.64 310.371C1126.78 310.389 1126.38 310.716 1125.8 311.328C1123.11 314.172 1119.86 315.82 1116.09 316.434C1112.9 316.952 1109.11 317.097 1106.04 315.613C1102.62 313.965 1101.87 310.71 1101.66 307.081C1101.05 307.602 1099.15 308.301 1099.97 306.633C1100.3 305.973 1101.11 305.534 1101.62 305.066C1102.22 304.521 1102.8 303.864 1103.18 303.121C1104.73 300.122 1101.29 295.654 1098.37 295.504C1094.02 295.28 1094.53 301.157 1092.01 303.335C1090.57 304.587 1088.54 303.869 1087.01 303.004C1084.95 301.846 1083.29 300.045 1081.79 298.169C1080.54 296.625 1079.35 295.042 1078.09 293.51C1077.51 292.794 1075.6 290.832 1076.04 289.75C1073 289.897 1070.08 291.887 1067.98 294.066C1067.11 294.966 1066.5 295.872 1066.24 297.147C1066.18 297.42 1066.11 298.209 1065.79 298.319C1065.21 298.523 1065.25 297.743 1065.22 297.384Z" fill="#191847"/>
<path fill-rule="evenodd" clip-rule="evenodd" d="M1037.25 423.301L1005.12 447.587C996.33 450.105 989.007 453.174 983.146 456.796C981.769 458.085 980.123 460.677 985.918 460.134C991.712 459.59 997.831 459.277 998.666 461.227C999.501 463.178 996.031 465.588 997.696 468.21C998.806 469.958 1003.83 465.439 1012.75 454.653L1044.75 440.828L1037.25 423.301ZM1162.23 421.95L1140.9 422.403C1154.81 464.358 1162.31 486.617 1163.4 489.18C1165.87 494.946 1161.03 503.878 1158.97 508.668C1165.99 511.637 1165.04 500.205 1173.89 504.106C1181.97 507.666 1188.18 514.264 1197.34 508.434C1198.47 507.718 1199.67 505.072 1196.62 503.073C1189.02 498.094 1178.05 489.34 1176.53 486.422C1174.47 482.443 1169.7 460.952 1162.23 421.95Z" fill="#B28B67"/>
<path fill-rule="evenodd" clip-rule="evenodd" d="M1100.07 334.212L1091.23 332.863C1058.98 361.498 1046.48 415.649 1006.86 444.908L1016.73 456.622C1086.19 446.859 1102.28 380.793 1100.07 334.212Z" fill="#E87613"/>
<path fill-rule="evenodd" clip-rule="evenodd" d="M1140.47 443.584C1105.09 444.199 1079.07 444.651 1062.4 444.94C1058.84 445.002 1059.42 439.878 1059.89 437.289C1065.32 407.414 1087.99 374.918 1087.24 332.538L1109.7 328.642C1128.84 358.048 1135.93 394.54 1140.47 443.584Z" fill="#DDE3E9"/>
<path fill-rule="evenodd" clip-rule="evenodd" d="M1138.33 357.375C1141.58 356.385 1144.13 354.164 1145.98 350.712C1153.95 335.83 1150.84 327.767 1142 325.252C1133.16 322.737 1125.41 328.368 1111.39 328.611C1110.63 328.624 1109.94 328.684 1109.3 328.79L1102.26 329.311C1083.23 397.692 1078.45 443.177 1087.92 465.767L1149.36 464.7C1153.15 473.062 1156.75 480.09 1160.18 485.784L1176.92 485.493C1177.61 434.902 1164.75 392.196 1138.33 357.375Z" fill="#FF9B21"/>
<path fill-rule="evenodd" clip-rule="evenodd" d="M1135.36 429.992C1133.71 446.072 1130.78 457.773 1126.56 465.094L1149.36 464.698C1144.94 454.944 1140.27 443.376 1135.36 429.992V429.992Z" fill="black" fill-opacity="0.1"/>
<path fill-rule="evenodd" clip-rule="evenodd" d="M939.777 330.059C934.078 333.486 928.479 335.142 925.851 334.466C919.26 332.771 918.654 308.717 923.754 299.235C928.853 289.752 955.068 285.619 956.39 304.407C956.848 310.928 954.104 316.747 950.049 321.496L957.32 355.305H936.2L939.777 330.059Z" fill="#B28B67"/>
<path fill-rule="evenodd" clip-rule="evenodd" d="M938.721 306.482C936.894 303.769 935.14 301.699 932.858 300.497C923.574 300.643 922.487 298.982 922.487 293.385C923.986 292.315 929.278 290.512 935.203 290.005C938.226 289.142 941.808 289.304 945.257 290.744C949.516 291.949 953.122 294.545 954.714 299.406C960.477 309.327 956.103 319.655 950.209 323.183C948.64 321.328 947.271 319.531 946.049 317.811C947.03 316.854 947.64 315.519 947.64 314.042C947.64 311.133 945.276 308.775 942.36 308.775C942.145 308.775 941.934 308.787 941.726 308.812C941.595 312.449 941.055 324.755 939.637 329.03C937.964 334.069 928.206 335.307 924.803 335.307C921.863 335.307 921.963 332.53 922.035 330.539C922.045 330.253 922.055 329.982 922.055 329.739C922.055 329.231 922.718 329.232 923.467 329.233C924.439 329.235 925.557 329.238 925.557 328.124C925.557 326.911 923.876 325.98 922.372 325.147C921.434 324.628 920.564 324.146 920.215 323.658C919.111 322.117 918.74 320.039 920.404 320.039C921.314 320.039 922.562 320.563 924.064 321.192C926.33 322.142 929.175 323.335 932.305 323.335C937.476 323.335 938.705 306.691 938.721 306.482Z" fill="#191847"/>
<path fill-rule="evenodd" clip-rule="evenodd" d="M964.36 428.174L932.455 539.871L909.178 622.197H892.2L916.936 428.174H964.36Z" fill="#191847"/>
<path fill-rule="evenodd" clip-rule="evenodd" d="M972.892 428.174C973.63 485.744 976.146 517.144 976.921 522.374C977.696 527.605 989.412 560.879 1012.07 622.197H994.48C965.637 563.373 949.536 530.099 946.177 522.374C942.818 514.65 932.452 483.25 916.84 428.174H972.892Z" fill="#2F3676"/>
<path fill-rule="evenodd" clip-rule="evenodd" d="M1013.64 638L1012.76 619.563L994.28 619.563C981.136 628.782 959.96 634.488 959.96 634.488V638H993.4L1004.84 636.244V638H1013.64Z" fill="#191847"/>
<path fill-rule="evenodd" clip-rule="evenodd" d="M911.56 638L910.68 619.563L892.2 619.563C879.056 628.782 857.88 634.488 857.88 634.488V638H891.32L902.76 636.244V638H911.56Z" fill="#191847"/>
<path fill-rule="evenodd" clip-rule="evenodd" d="M1032.68 460.028C1029.4 455.218 1010.41 404.062 1010.41 404.062L994.826 406.32C994.826 406.32 1019.92 460.642 1021.73 463.777C1024.09 467.85 1022.01 474.539 1020.59 479.074C1020.38 479.776 1020.17 480.426 1020.01 481.007C1022.97 481.862 1024.1 480.168 1025.29 478.382C1026.63 476.365 1028.06 474.231 1032.29 475.519C1033.93 476.016 1035.5 476.656 1037.04 477.28C1042.35 479.437 1047.22 481.419 1052.82 476.785C1053.71 476.05 1054.46 473.648 1051.63 472.248C1044.6 468.761 1034.28 462.38 1032.68 460.028ZM863.56 436.252L890.124 413.784L897.384 428.618L870.459 442.025C863.261 451.762 859.144 455.899 858.109 454.436C857.236 453.203 857.763 451.954 858.249 450.804C858.627 449.908 858.98 449.071 858.626 448.349C857.818 446.698 852.563 447.244 847.598 447.976C842.633 448.707 843.932 446.389 845.059 445.211C849.942 441.813 856.108 438.826 863.56 436.252Z" fill="#B28B67"/>
<path fill-rule="evenodd" clip-rule="evenodd" d="M945.269 340.672L935.611 337.486C922.51 370.136 902.971 401.727 870.326 428.411L878.399 442.306C907.089 425.445 934.248 412.347 945.269 387.047C948.967 378.555 945.57 350.825 945.269 340.672Z" fill="#C5CFD6"/>
<path fill-rule="evenodd" clip-rule="evenodd" d="M978.44 432.563C978.44 432.563 936.941 436.953 913.112 432.563C911.144 432.201 910.833 428.913 911.746 426.682C925.96 391.936 935.707 361.619 935.707 337.485C939.619 339.453 949.4 338.075 949.4 338.075C966.924 362.945 974.979 391.481 978.44 432.563Z" fill="#323337"/>
<path fill-rule="evenodd" clip-rule="evenodd" d="M954.422 335.99C953.97 335.686 953.731 335.535 953.731 335.535L953.757 335.99H946.454C946.087 338.144 945.549 346.124 944.765 357.761C941.917 400.049 935.817 490.618 922.833 525.278H1012.42C1010.53 485.873 995.969 438.75 980.883 398.737C992.015 409.786 1005.02 428.308 1015.52 459.141L1032.3 454.843C1015.2 381.326 965.098 343.411 955.376 336.644C955.281 336.425 955.187 336.207 955.093 335.99H954.422Z" fill="#DDE3E9"/>
</g>
<defs>
<clipPath id="clip0">
<rect width="1280" height="720" fill="white"/>
</clipPath>
</defs>
</svg>
