<svg width="20" height="20" viewBox="0 0 20 20" fill="none" xmlns="http://www.w3.org/2000/svg">
<path fill-rule="evenodd" clip-rule="evenodd" d="M2 2.44557C2 1.64721 2.64721 1 3.44557 1H15.5544C16.3528 1 17 1.64721 17 2.44557V17.7687C17 18.567 16.3528 19.2142 15.5544 19.2142H3.44557C2.64721 19.2142 2 18.567 2 17.7687V2.44557ZM7.06799 4.21437H5.50337C5.3437 4.21437 5.21426 4.34381 5.21426 4.50348V6.0681C5.21426 6.22778 5.3437 6.35722 5.50337 6.35722H7.06799C7.22767 6.35722 7.35711 6.22778 7.35711 6.0681V4.50348C7.35711 4.34381 7.22767 4.21437 7.06799 4.21437ZM5.50329 12.7857H7.06791C7.22759 12.7857 7.35703 12.9151 7.35703 13.0748V14.6394C7.35703 14.7991 7.22759 14.9285 7.06791 14.9285H5.50329C5.34362 14.9285 5.21418 14.7991 5.21418 14.6394V13.0748C5.21418 12.9151 5.34362 12.7857 5.50329 12.7857ZM7.06791 8.50007H5.50329C5.34362 8.50007 5.21418 8.62951 5.21418 8.78918V10.3538C5.21418 10.5135 5.34362 10.6429 5.50329 10.6429H7.06791C7.22759 10.6429 7.35703 10.5135 7.35703 10.3538V8.78918C7.35703 8.62951 7.22759 8.50007 7.06791 8.50007ZM11.9319 4.21437H13.4966C13.6562 4.21437 13.7857 4.34381 13.7857 4.50348V6.0681C13.7857 6.22778 13.6562 6.35722 13.4966 6.35722H11.9319C11.7723 6.35722 11.6428 6.22778 11.6428 6.0681V4.50348C11.6428 4.34381 11.7723 4.21437 11.9319 4.21437ZM13.4966 12.7857H11.9319C11.7723 12.7857 11.6428 12.9151 11.6428 13.0748V14.6394C11.6428 14.7991 11.7723 14.9285 11.9319 14.9285H13.4966C13.6562 14.9285 13.7857 14.7991 13.7857 14.6394V13.0748C13.7857 12.9151 13.6562 12.7857 13.4966 12.7857ZM11.9319 8.50007H13.4966C13.6562 8.50007 13.7857 8.62951 13.7857 8.78918V10.3538C13.7857 10.5135 13.6562 10.6429 13.4966 10.6429H11.9319C11.7723 10.6429 11.6428 10.5135 11.6428 10.3538V8.78918C11.6428 8.62951 11.7723 8.50007 11.9319 8.50007Z" fill="#00E7A2"/>
</svg>
