<svg width="20" height="20" viewBox="0 0 20 20" fill="none" xmlns="http://www.w3.org/2000/svg">
<path fill-rule="evenodd" clip-rule="evenodd" d="M3.09488 2C2.4902 2 2 2.4902 2 3.09489V17.1094C2 17.7141 2.4902 18.2043 3.09488 18.2043H9.6642V3.09489C9.6642 2.4902 9.174 2 8.56931 2H3.09488ZM15.9052 8.67887H9.66439V18.2044H15.9052C16.51 18.2044 17.0001 17.7142 17.0001 17.1095V9.77376C17.0001 9.16908 16.51 8.67887 15.9052 8.67887ZM7.80294 6.37969H7.14601C7.02507 6.37969 6.92703 6.47773 6.92703 6.59867V7.2556C6.92703 7.37654 7.02507 7.47458 7.14601 7.47458H7.80294C7.92388 7.47458 8.02192 7.37654 8.02192 7.2556V6.59867C8.02192 6.47773 7.92388 6.37969 7.80294 6.37969ZM7.14601 12.949H7.80294C7.92388 12.949 8.02192 13.047 8.02192 13.168V13.8249C8.02192 13.9458 7.92388 14.0439 7.80294 14.0439H7.14601C7.02507 14.0439 6.92703 13.9458 6.92703 13.8249V13.168C6.92703 13.047 7.02507 12.949 7.14601 12.949ZM12.0729 10.7592H11.416C11.2951 10.7592 11.197 10.8572 11.197 10.9782V11.6351C11.197 11.756 11.2951 11.8541 11.416 11.8541H12.0729C12.1939 11.8541 12.2919 11.756 12.2919 11.6351V10.9782C12.2919 10.8572 12.1939 10.7592 12.0729 10.7592ZM11.416 12.949H12.0729C12.1939 12.949 12.2919 13.047 12.2919 13.168V13.8249C12.2919 13.9458 12.1939 14.0439 12.0729 14.0439H11.416C11.2951 14.0439 11.197 13.9458 11.197 13.8249V13.168C11.197 13.047 11.2951 12.949 11.416 12.949ZM12.0729 15.1387H11.416C11.2951 15.1387 11.197 15.2368 11.197 15.3577V16.0146C11.197 16.1356 11.2951 16.2336 11.416 16.2336H12.0729C12.1939 16.2336 12.2919 16.1356 12.2919 16.0146V15.3577C12.2919 15.2368 12.1939 15.1387 12.0729 15.1387ZM14.7007 10.7592H15.3576C15.4785 10.7592 15.5766 10.8572 15.5766 10.9782V11.6351C15.5766 11.756 15.4785 11.8541 15.3576 11.8541H14.7007C14.5797 11.8541 14.4817 11.756 14.4817 11.6351V10.9782C14.4817 10.8572 14.5797 10.7592 14.7007 10.7592ZM15.3576 12.949H14.7007C14.5797 12.949 14.4817 13.047 14.4817 13.168V13.8249C14.4817 13.9458 14.5797 14.0439 14.7007 14.0439H15.3576C15.4785 14.0439 15.5766 13.9458 15.5766 13.8249V13.168C15.5766 13.047 15.4785 12.949 15.3576 12.949ZM14.7007 15.1387H15.3576C15.4785 15.1387 15.5766 15.2368 15.5766 15.3577V16.0146C15.5766 16.1356 15.4785 16.2336 15.3576 16.2336H14.7007C14.5797 16.2336 14.4817 16.1356 14.4817 16.0146V15.3577C14.4817 15.2368 14.5797 15.1387 14.7007 15.1387ZM4.51852 4.18984H3.86159C3.74065 4.18984 3.64261 4.28788 3.64261 4.40882V5.06574C3.64261 5.18668 3.74065 5.28472 3.86159 5.28472H4.51852C4.63946 5.28472 4.73749 5.18668 4.73749 5.06574V4.40882C4.73749 4.28788 4.63946 4.18984 4.51852 4.18984ZM3.86159 6.37969H4.51852C4.63946 6.37969 4.73749 6.47773 4.73749 6.59867V7.2556C4.73749 7.37654 4.63946 7.47458 4.51852 7.47458H3.86159C3.74065 7.47458 3.64261 7.37654 3.64261 7.2556V6.59867C3.64261 6.47773 3.74065 6.37969 3.86159 6.37969ZM4.51852 8.56948H3.86159C3.74065 8.56948 3.64261 8.66752 3.64261 8.78846V9.44539C3.64261 9.56633 3.74065 9.66436 3.86159 9.66436H4.51852C4.63946 9.66436 4.73749 9.56633 4.73749 9.44539V8.78846C4.73749 8.66752 4.63946 8.56948 4.51852 8.56948ZM3.86159 10.7592H4.51852C4.63946 10.7592 4.73749 10.8572 4.73749 10.9782V11.6351C4.73749 11.756 4.63946 11.8541 4.51852 11.8541H3.86159C3.74065 11.8541 3.64261 11.756 3.64261 11.6351V10.9782C3.64261 10.8572 3.74065 10.7592 3.86159 10.7592ZM4.51852 12.949H3.86159C3.74065 12.949 3.64261 13.047 3.64261 13.168V13.8249C3.64261 13.9458 3.74065 14.0439 3.86159 14.0439H4.51852C4.63946 14.0439 4.73749 13.9458 4.73749 13.8249V13.168C4.73749 13.047 4.63946 12.949 4.51852 12.949ZM7.14601 4.18984H7.80294C7.92388 4.18984 8.02192 4.28788 8.02192 4.40882V5.06574C8.02192 5.18668 7.92388 5.28472 7.80294 5.28472H7.14601C7.02507 5.28472 6.92703 5.18668 6.92703 5.06574V4.40882C6.92703 4.28788 7.02507 4.18984 7.14601 4.18984ZM7.80294 8.56948H7.14601C7.02507 8.56948 6.92703 8.66752 6.92703 8.78846V9.44539C6.92703 9.56633 7.02507 9.66436 7.14601 9.66436H7.80294C7.92388 9.66436 8.02192 9.56633 8.02192 9.44539V8.78846C8.02192 8.66752 7.92388 8.56948 7.80294 8.56948ZM7.14601 10.7592H7.80294C7.92388 10.7592 8.02192 10.8572 8.02192 10.9782V11.6351C8.02192 11.756 7.92388 11.8541 7.80294 11.8541H7.14601C7.02507 11.8541 6.92703 11.756 6.92703 11.6351V10.9782C6.92703 10.8572 7.02507 10.7592 7.14601 10.7592Z" fill="#0284FF"/>
</svg>
